<?xml version="1.0" standalone="no"?><!DOCTYPE svg PUBLIC "-//W3C//DTD SVG 1.1//EN" "http://www.w3.org/Graphics/SVG/1.1/DTD/svg11.dtd"><svg t="1641385974223" class="icon" viewBox="0 0 1286 1024" version="1.1" xmlns="http://www.w3.org/2000/svg" p-id="54455" xmlns:xlink="http://www.w3.org/1999/xlink" width="251.171875" height="200"><defs><style type="text/css"></style></defs><path d="M792.260975 437.207122a56.22205 56.22205 0 0 0-29.32832 8.153046l-2.09488-3.453721-141.319474 141.772421c-1.981643 0.113237-4.076523 0.056618-5.888311 0.169855-48.012385 0-87.135685 39.010063-87.192303 87.022448 0 48.069004 39.1233 87.192303 87.192303 87.192304s87.192303-39.1233 87.135685-86.343028a45.464558 45.464558 0 0 0 0.283092-6.228022l131.467876-131.128165a56.618379 56.618379 0 0 0 16.645803-40.255668 56.278669 56.278669 0 0 0-16.702422-40.199049 56.505142 56.505142 0 0 0-40.199049-16.702421z" p-id="54456" fill="#ffffff"></path><path d="M1164.979763 284.733827C970.21254-3.623576 577.337609-79.775296 288.866969 114.822072 0.566184 309.532677-75.642154 702.520845 119.068451 991.048104c9.625124 13.814884 25.081942 22.36426 41.784363 23.156916l0.905894 0.396329h2.491209a53.900697 53.900697 0 0 0 46.540307-80.171624l-1.981643-3.566958a519.303771 519.303771 0 0 1-88.834236-259.708504l57.920601-0.056618c28.139334-1.981643 50.843304-24.742232 52.881566-52.881566a57.184563 57.184563 0 0 0-53.617605-60.921376h-52.994802a520.492757 520.492757 0 0 1 93.420325-227.152936l30.913635 30.857017c21.231892 18.457592 53.334513 18.570828 74.679642 0.33971 23.892956-20.439235 26.723875-56.618379 5.718456-81.190755l-33.857791-34.197501a526.154595 526.154595 0 0 1 289.999337-128.863431l-0.056619 1.641933 0.056619 72.811236c1.981643 28.252571 24.79885 51.013159 53.051421 53.051421a55.54263 55.54263 0 0 0 41.444653-13.871503 57.184563 57.184563 0 0 0 19.589959-39.915957V119.125069l-0.056618-1.472078a524.682517 524.682517 0 0 1 287.904456 126.881787l-36.292381 36.292381c-18.51421 21.684839-18.400973 53.051421 0.283092 74.566405a56.844852 56.844852 0 0 0 81.134137 5.208891l32.442331-32.102621a517.831693 517.831693 0 0 1 95.401969 228.681632l-55.655867 0.056619a57.354418 57.354418 0 0 0-52.881566 52.881566 56.901471 56.901471 0 0 0 53.617605 60.921375h59.789008a519.303771 519.303771 0 0 1-86.116554 255.405507 53.730842 53.730842 0 0 0 54.919827 81.360611 53.504368 53.504368 0 0 0 34.93354-22.307642 629.143426 629.143426 0 0 0-3.566958-700.765675z" p-id="54457" fill="#ffffff"></path></svg>