<?xml version="1.0" standalone="no"?><!DOCTYPE svg PUBLIC "-//W3C//DTD SVG 1.1//EN" "http://www.w3.org/Graphics/SVG/1.1/DTD/svg11.dtd"><svg t="1641384686930" class="icon" viewBox="0 0 1024 1024" version="1.1" xmlns="http://www.w3.org/2000/svg" p-id="47399" xmlns:xlink="http://www.w3.org/1999/xlink" width="200" height="200"><defs><style type="text/css"></style></defs><path d="M512 1024C229.701818 1024 0 794.298182 0 512S229.701818 0 512 0s512 229.701818 512 512-229.701818 512-512 512z m0-36.584727c262.562909 0 475.415273-212.852364 475.415273-475.415273S774.562909 36.584727 512 36.584727 36.584727 249.437091 36.584727 512 249.437091 987.415273 512 987.415273z m-62.557091-464.430546a73.122909 73.122909 0 1 1 146.292364 0 73.122909 73.122909 0 0 1-146.292364 0z m-54.551273 0a128.558545 128.558545 0 0 0 91.136 99.886546c-33.605818 84.666182 41.053091 210.618182-96.209454 261.026909-72.238545 26.530909-276.805818-57.204364-162.210909-231.517091C279.272727 573.905455 341.736727 538.391273 394.891636 522.984727z m48.407273-73.076363C389.026909 375.296 236.590545 365.754182 271.825455 225.978182c18.618182-73.541818 209.221818-193.303273 294.772363-2.839273 38.493091 85.736727 33.326545 156.392727 16.104727 208.197818a139.077818 139.077818 0 0 0-53.992727-10.845091c-32.442182 0-62.231273 11.031273-85.410909 29.323637z m447.860364 40.96c54.830545 54.318545 64.930909 277.410909-142.894546 249.111272-93.602909-12.8-152.529455-54.272-189.067636-96.023272a131.258182 131.258182 0 0 0 52.596364-126.743273c91.601455-6.283636 175.150545-129.489455 279.365818-26.344727z" p-id="47400" fill="#ffffff"></path></svg>