<?xml version="1.0" standalone="no"?><!DOCTYPE svg PUBLIC "-//W3C//DTD SVG 1.1//EN" "http://www.w3.org/Graphics/SVG/1.1/DTD/svg11.dtd"><svg t="1641384713029" class="icon" viewBox="0 0 1024 1024" version="1.1" xmlns="http://www.w3.org/2000/svg" p-id="49319" xmlns:xlink="http://www.w3.org/1999/xlink" width="200" height="200"><defs><style type="text/css"></style></defs><path d="M921.6 332.8h-51.2c-6.6 0-13 0.6-19.3 1.8-20.7-28.7-54.5-53-83.1-53H512V128c0-28.3-22.9-51.2-51.2-51.2h-256c-28.3 0-51.2 22.9-51.2 51.2v153.6c-27.5 0-59.8 22.4-80.6 49.7-5.1-1.5-10.5-2.3-16.1-2.3C25.5 328.9 0 354.4 0 385.8v349.9c0 31.4 25.5 56.9 56.9 56.9 3.5 0 6.8-0.2 9.8-0.7 18.3 32.6 50.1 62.5 79.6 62.5h2.5l-46.4 92.7h768l-51.2-102.4h-2.1c4.4-2.4 8.6-5.2 12.7-8.4 12.5 5.4 26.2 8.4 40.6 8.4h51.2c56.6 0 102.4-45.8 102.4-102.4V435.2c0-56.6-45.8-102.4-102.4-102.4zM409.6 128c28.3 0 51.2 22.9 51.2 51.2s-22.9 51.2-51.2 51.2-51.2-22.9-51.2-51.2 22.9-51.2 51.2-51.2zM256 128c28.3 0 51.2 22.9 51.2 51.2s-22.9 51.2-51.2 51.2-51.2-22.9-51.2-51.2S227.7 128 256 128z m512 665.6H153.6v-51.2H768v51.2z m0-102.4H153.6V640H768v51.2z m0-102.4H153.6v-51.2H768v51.2z m0-102.4H153.6v-51.2H768v51.2z m0-102.4H153.6v-51.2H768V384z" fill="#ffffff" p-id="49320"></path></svg>