<?xml version="1.0" standalone="no"?><!DOCTYPE svg PUBLIC "-//W3C//DTD SVG 1.1//EN" "http://www.w3.org/Graphics/SVG/1.1/DTD/svg11.dtd"><svg t="1641384226971" class="icon" viewBox="0 0 1024 1024" version="1.1" xmlns="http://www.w3.org/2000/svg" p-id="19362" xmlns:xlink="http://www.w3.org/1999/xlink" width="200" height="200"><defs><style type="text/css"></style></defs><path d="M763.5 320.5h-503c-24.9 0-45-20.1-45-45s20.1-45 45-45h503c24.9 0 45 20.1 45 45s-20.1 45-45 45zM593.9 813.5s-0.1 0 0 0l-163.8-0.2c-24.9 0-45-20.2-44.9-45.1 0-24.8 20.2-44.9 45-44.9h0.1l163.8 0.2c24.9 0 45 20.2 44.9 45.1-0.1 24.8-20.3 44.9-45.1 44.9z" p-id="19363" fill="#ffffff"></path><path d="M260.5 393.5c-24.9 0-45-20.1-45-45v-73c0-24.9 20.1-45 45-45s45 20.1 45 45v73c0 24.9-20.1 45-45 45zM763.5 393.5c-24.9 0-45-20.1-45-45v-73c0-24.9 20.1-45 45-45s45 20.1 45 45v73c0 24.9-20.1 45-45 45zM512 813.3c-24.9 0-45-20.1-45-45V295.9c0-24.9 20.1-45 45-45s45 20.1 45 45v472.4c0 24.8-20.1 45-45 45z" p-id="19364" fill="#ffffff"></path><path d="M889 1024H135C60.6 1024 0 963.4 0 889V135C0 60.6 60.6 0 135 0h754c74.4 0 135 60.6 135 135v754c0 74.4-60.6 135-135 135zM135 90c-24.8 0-45 20.2-45 45v754c0 24.8 20.2 45 45 45h754c24.8 0 45-20.2 45-45V135c0-24.8-20.2-45-45-45H135z" p-id="19365" fill="#ffffff"></path></svg>