<?xml version="1.0" standalone="no"?><!DOCTYPE svg PUBLIC "-//W3C//DTD SVG 1.1//EN" "http://www.w3.org/Graphics/SVG/1.1/DTD/svg11.dtd"><svg t="1641385938496" class="icon" viewBox="0 0 1345 1024" version="1.1" xmlns="http://www.w3.org/2000/svg" p-id="53347" xmlns:xlink="http://www.w3.org/1999/xlink" width="262.6953125" height="200"><defs><style type="text/css"></style></defs><path d="M1345.303263 1024H0V0h1345.303263zM82.49792 941.50208h1180.307423v-859.032187H82.49792z" p-id="53348" fill="#ffffff"></path><path d="M351.348369 639.621633h87.767024V404.656011H362.951609v-61.09919c44.451062-8.324064 73.333041-19.436829 102.215021-37.206044h72.772499v333.270856H612.393256v79.975477H351.348369zM796.797898 662.940223c103.322093-93.890957 172.759361-168.849573 172.759361-228.84169 0-37.836654-21.118459-58.324502-53.882199-58.324502-28.321436 0-50.560981 18.8903-69.99781 39.994745L791.767024 362.447121c40.541274-42.769433 78.321874-63.873878 137.192906-63.873878 79.98949 0 135.539304 51.093497 135.539304 129.9619 0 71.104883-61.113203 149.426757-124.440552 213.300635 20.571929-2.802715 48.893365-5.60543 67.265163-5.60543h76.121743v83.310707H796.797898z" p-id="53349" fill="#ffffff"></path></svg>