<?xml version="1.0" standalone="no"?><!DOCTYPE svg PUBLIC "-//W3C//DTD SVG 1.1//EN" "http://www.w3.org/Graphics/SVG/1.1/DTD/svg11.dtd"><svg t="1663533797808" class="icon" viewBox="0 0 1024 1024" version="1.1" xmlns="http://www.w3.org/2000/svg" p-id="2025" xmlns:xlink="http://www.w3.org/1999/xlink" width="200" height="200"><path d="M985.400581 232.678109L792.606285 40.55981A43.939794 43.939794 0 0 0 730.144177 40.55981L256.946396 513.757592l-84.905202 85.040401a33.394243 33.394243 0 0 0-3.785583 3.785582l-3.920781 3.785583a43.939794 43.939794 0 0 0-12.84394 31.095854 13.519937 13.519937 0 0 0 0 2.298389L83.350409 833.368894a85.581199 85.581199 0 0 0 80.173224 114.108265 86.257196 86.257196 0 0 0 28.932665-5.002377l195.498283-69.492474h0.946396a43.804595 43.804595 0 0 0 31.095854-12.84394l0.675997-0.675997 10.545551-10.410351 81.119619-81.11962L527.345128 753.06047l47.725376-47.725376 67.599683-67.599683 62.191709-62.326908 62.191708-62.191709 218.346977-218.346976a44.074993 44.074993 0 0 0 0-62.191709zM168.120412 857.56958l49.07737-138.038553 88.961183 89.096383z m226.594138-96.532347l-130.467389-130.467389 55.702139-55.702139 62.191709-62.191708 130.467388-130.467389 62.326908-62.326907 186.575125-186.575126L892.383417 263.773964z" p-id="2026" fill="#1296db"></path><path d="M431.218379 849.187219a45.291788 45.291788 0 0 1-10.545551 10.410352z" p-id="2027" fill="#1296db"></path><path d="M236.80169 106.266702l-130.467388 130.467388L148.786903 278.916293 197.188276 229.838923a30.825456 30.825456 0 1 1 43.669395 43.534196l-48.806971 49.212569 35.422234 35.287034 48.806971-48.806971a30.825456 30.825456 0 0 1 43.534196 43.669396L270.466332 401.542118l35.422234 35.422234 48.806971-48.806971a30.825456 30.825456 0 0 1 33.664643-6.759969l-131.278585 131.278585L13.587536 267.829945a43.939794 43.939794 0 0 1 0-62.191709L205.570636 13.519937a44.210193 44.210193 0 0 1 62.326908 0l244.710853 244.846052-62.191708 62.191708zM1011.088461 818.361764L818.294164 1011.020861a43.804595 43.804595 0 0 1-62.191708 0l-243.358859-243.358859L527.345128 753.06047l47.725376-47.725376 67.599683-67.599683a30.555057 30.555057 0 0 1-7.165566 30.960654l-48.806971 48.806972L621.984684 752.925271l48.806972-48.806972a30.825456 30.825456 0 0 1 43.669395 43.534196l-48.806971 48.806972 35.422234 35.422234 48.806971-48.806972a30.825456 30.825456 0 1 1 43.534196 43.669396l-48.401373 48.806971 42.182202 42.182202 130.467388-130.467388-212.263005-212.398205 62.191709-62.191708 243.358859 243.358859a44.210193 44.210193 0 0 1 0.1352 62.326908z" p-id="2028" fill="#1296db"></path></svg>