<?xml version="1.0" standalone="no"?><!DOCTYPE svg PUBLIC "-//W3C//DTD SVG 1.1//EN" "http://www.w3.org/Graphics/SVG/1.1/DTD/svg11.dtd"><svg t="1661498808498" class="icon" viewBox="0 0 1280 1024" version="1.1" xmlns="http://www.w3.org/2000/svg" p-id="6158" xmlns:xlink="http://www.w3.org/1999/xlink" width="250" height="200"><path d="M896 576c-13.568 0-27.008 0.256-40.256 0.832 34.624 33.408 62.08 75.776 80.384 127.616 111.872 2.24 215.872 19.072 215.872 132.416V896h-192v124.544h320v-169.472C1280 632.512 1102.272 576 896 576zM832 125.76c70.656 0 128 65.984 128 162.24 0 96.256-57.344 110.208-128 110.208-16.32 0-31.808-0.896-46.144-3.264-12.224 39.872-30.72 71.744-54.784 96.256A256 256 0 1 0 832 0a253.44 253.44 0 0 0-116.864 29.44 286.72 286.72 0 0 1 65.152 109.312c15.808-8.32 33.28-12.992 51.712-12.992zM448 512a256 256 0 1 0 0-512 256 256 0 0 0 0 512z m0-398.016c70.656 0 128 63.552 128 142.016s-57.344 142.016-128 142.016S320 334.464 320 256s57.344-142.016 128-142.016z" fill="#1296db" p-id="6159"></path><path d="M448 576c-206.272 0-448 56.576-448 275.008v169.472h896v-169.472C896 632.512 654.272 576 448 576z m320 320H128v-59.136C128 710.016 322.24 704 448 704c125.76 0 320 6.016 320 132.864V896z" fill="#1296db" p-id="6160"></path></svg>