<?xml version="1.0" standalone="no"?><!DOCTYPE svg PUBLIC "-//W3C//DTD SVG 1.1//EN" "http://www.w3.org/Graphics/SVG/1.1/DTD/svg11.dtd"><svg t="1661362481702" class="icon" viewBox="0 0 1024 1024" version="1.1" xmlns="http://www.w3.org/2000/svg" p-id="20811" xmlns:xlink="http://www.w3.org/1999/xlink" width="200" height="200"><defs><style type="text/css"></style></defs><path d="M691.2 608c-57.4 0-85 32-179.2 32-94.2 0-121.6-32-179.2-32C184.4 608 64 728.4 64 876.8V928c0 53 43 96 96 96h704c53 0 96-43 96-96v-51.2c0-148.4-120.4-268.8-268.8-268.8zM864 928H160v-51.2c0-95.2 77.6-172.8 172.8-172.8 29.2 0 76.6 32 179.2 32 103.4 0 149.8-32 179.2-32 95.2 0 172.8 77.6 172.8 172.8V928zM512 576c159 0 288-129 288-288S671 0 512 0 224 129 224 288s129 288 288 288z m0-480c105.8 0 192 86.2 192 192s-86.2 192-192 192-192-86.2-192-192 86.2-192 192-192z" p-id="20812" fill="#1296db"></path></svg>