<?xml version="1.0" standalone="no"?><!DOCTYPE svg PUBLIC "-//W3C//DTD SVG 1.1//EN" "http://www.w3.org/Graphics/SVG/1.1/DTD/svg11.dtd"><svg t="1684215823952" class="icon" viewBox="0 0 1024 1024" version="1.1" xmlns="http://www.w3.org/2000/svg" p-id="8590" xmlns:xlink="http://www.w3.org/1999/xlink" width="200" height="200"><path d="M938.496 810.496H85.504c-47.104 0-85.504-38.4-85.504-85.504v-640C0 38.4 38.4 0 85.504 0h853.504c47.104 0 85.504 38.4 85.504 85.504v640c-0.512 47.104-38.912 84.992-86.016 84.992zM85.504 64c-11.776 0-21.504 9.728-21.504 21.504v640c0 11.776 9.728 21.504 21.504 21.504h853.504c11.776 0 21.504-9.728 21.504-21.504v-640c0-11.776-9.728-21.504-21.504-21.504H85.504z" fill="#1296db" p-id="8591"></path><path d="M243.712 1024c-17.92 0-32.256-14.336-32.256-32.256V778.24c0-17.92 14.336-32.256 32.256-32.256s32.256 14.336 32.256 32.256v213.504c-0.512 17.92-14.848 32.256-32.256 32.256zM780.288 1024c-17.92 0-32.256-14.336-32.256-32.256V778.24c0-17.92 14.336-32.256 32.256-32.256s32.256 14.336 32.256 32.256v213.504c0 17.92-14.336 32.256-32.256 32.256zM445.952 656.384c-8.192 0-16.384-3.072-22.528-9.216-12.288-12.288-12.288-32.768 0-45.056l164.352-164.352H358.912c-12.8 0-24.576-7.68-29.696-19.968-5.12-11.776-2.048-25.6 7.168-34.816L555.52 163.84c12.288-12.288 32.768-12.288 45.056 0 12.288 12.288 12.288 32.768 0 45.056L436.224 373.248h228.864c12.8 0 24.576 7.68 29.696 19.968 5.12 11.776 2.048 25.6-7.168 34.816l-219.136 219.136c-6.144 6.144-14.336 9.216-22.528 9.216z" fill="#1296db" p-id="8592"></path></svg>