<?xml version="1.0" standalone="no"?><!DOCTYPE svg PUBLIC "-//W3C//DTD SVG 1.1//EN" "http://www.w3.org/Graphics/SVG/1.1/DTD/svg11.dtd"><svg t="1684221999593" class="icon" viewBox="0 0 1024 1024" version="1.1" xmlns="http://www.w3.org/2000/svg" p-id="31095" xmlns:xlink="http://www.w3.org/1999/xlink" width="200" height="200"><path d="M981.333333 533.333333H42.666667l151.68-303.36A85.226667 85.226667 0 0 1 275.626667 170.666667h472.746666c37.12 0 69.973333 23.893333 81.28 59.306666L981.333333 533.333333zM42.666667 597.333333v170.666667c0 47.146667 38.186667 85.333333 85.333333 85.333333h768c47.146667 0 85.333333-38.186667 85.333333-85.333333v-170.666667H42.666667z m778.666666 170.666667h-106.666666c-17.706667 0-32-14.293333-32-32s14.293333-32 32-32h106.666666c17.706667 0 32 14.293333 32 32s-14.293333 32-32 32z" p-id="31096" fill="#1296db"></path></svg>