<?xml version="1.0" encoding="utf-8"?>
<!-- Generator: Adobe Illustrator 23.0.1, SVG Export Plug-In . SVG Version: 6.00 Build 0)  -->
<svg version="1.1" id="图层_1" xmlns="http://www.w3.org/2000/svg" xmlns:xlink="http://www.w3.org/1999/xlink" x="0px" y="0px"
	 viewBox="0 0 819.67 819.03" style="enable-background:new 0 0 819.67 819.03;" xml:space="preserve">
<style type="text/css">
	.st0{fill:#CE7A7A;}
	.st1{fill:#E8E849;}
	.st2{fill:#7CD8A5;}
	.st3{fill:#5EB5FC;}
	.st4{fill:#B292F7;}
</style>
<g>
	<g>
		<path class="st0" d="M425.64,0.3C304.07-4.33,186.71,45.19,105.22,135.52c59.56-1.16,118.35-13.7,173.2-36.92
			C333.3,75.51,383.27,42.14,425.64,0.3L425.64,0.3z"/>
		<path class="st1" d="M353.32,276.2c108.54-45.66,202.86-119.57,273.14-214.05c-33-20.54-68.73-36.29-106.14-46.81
			c-9.64,11.7-19.76,23.02-30.37,33.94c-51.28,52.68-112.65,94.47-180.46,122.88c-67.72,28.73-140.54,43.5-214.11,43.42
			c-15.17,0-30.33-0.64-45.46-1.93c-18.56,34.15-32.19,70.75-40.49,108.72c116.72,15.54,235.47-0.48,343.89-46.4V276.2z"/>
		<path d="M353.32,276.2"/>
		<path class="st2" d="M428.28,453.73c130.64-54.95,245.47-141.68,334.06-252.31c-19.65-33.4-43.96-63.83-72.21-90.35
			c-19.1,25.49-39.82,49.73-62.03,72.56c-69.22,71.25-152.12,127.79-243.71,166.24c-121.15,51.39-253.81,69.57-384.32,52.66
			c-0.71,38.73,4.11,77.38,14.34,114.75C155.5,530.92,297.77,509.08,428.28,453.73L428.28,453.73z M428.28,453.73"/>
		<path class="st3" d="M798.96,282.63c-10.57,12.09-21.48,23.91-32.71,35.46C589.84,498.97,347.94,601.07,95.27,601.3
			c-16.07,0-32.14-0.43-48.21-1.29c22.34,42.59,52.06,80.89,87.77,113.11c255.8-9.52,499.3-112.24,684.62-288.83
			C821.04,376.24,814.1,328.27,798.96,282.63L798.96,282.63z"/>
		<path class="st4" d="M244.31,784.22c103.2,45.5,220.59,46.43,324.5,2.58c103.91-43.86,185.14-128.61,224.54-234.3
			C634.19,677.17,444.66,757.16,244.31,784.22L244.31,784.22z"/>
		<path d="M244.31,784.22"/>
	</g>
</g>
</svg>
