<?xml version="1.0" standalone="no"?><!DOCTYPE svg PUBLIC "-//W3C//DTD SVG 1.1//EN" "http://www.w3.org/Graphics/SVG/1.1/DTD/svg11.dtd"><svg t="1652442793062" class="icon" viewBox="0 0 1975 1024" version="1.1" xmlns="http://www.w3.org/2000/svg" p-id="10765" xmlns:xlink="http://www.w3.org/1999/xlink" width="385.7421875" height="200"><defs><style type="text/css"></style></defs><path d="M1933.276831 1024H42.542584a42.542584 42.542584 0 0 1-42.542584-42.542584V42.542584a42.542584 42.542584 0 0 1 42.542584-42.542584h1890.734247a42.542584 42.542584 0 0 1 42.542585 42.542584v938.914832a42.542584 42.542584 0 0 1-42.542585 42.542584zM85.085168 938.914832h1805.649079V85.085168H85.085168z" fill="#fff" p-id="10767"></path><path d="M393.944329 226.04293h185.769284c115.432212 0 203.353552 33.325024 203.353552 137.979782 0 51.618335-28.361723 104.796566-76.576651 121.388173v3.828832c60.694087 14.180861 105.3638 56.723446 105.3638 132.732863 0 113.446891-94.019111 165.348844-217.676222 165.348844H393.944329zM571.488713 453.787564c70.904307 0 102.385819-28.361723 102.38582-73.59867 0-49.349398-33.466833-69.060795-100.967733-69.060795h-66.650049V453.787564z m12.904584 246.463371c76.576651 0 118.268384-27.227254 118.268384-85.085168 0-54.596316-40.982689-77.427503-118.268384-77.427504H506.256751v163.079906zM908.284171 638.138762V450.525966h-59.985043v-82.674422l65.231962-5.246919 12.904584-113.446891h93.310068v113.446891h104.796565v87.921341h-104.796565V638.138762c0 48.498546 19.711397 70.904307 57.716105 70.904307a124.366154 124.366154 0 0 0 41.691733-9.21756l18.151502 81.256336a276.101371 276.101371 0 0 1-89.481235 15.882564c-100.825924 0.99266-139.539676-62.679407-139.539676-158.825647zM1210.903753 362.604625h91.04113l7.657665 56.014403h2.977981c37.153857-36.303005 80.405484-66.650048 138.12159-66.650049 91.750173 0 131.172968 63.672068 131.172968 170.170337v265.182108h-111.461571v-251.001247c0-65.231962-18.151503-88.772192-59.985043-88.772192-34.884919 0-56.723446 16.591608-88.772193 47.789503v291.983936h-110.752527z" fill="#fff" p-id="10768"></path></svg>