<?xml version="1.0" standalone="no"?><!DOCTYPE svg PUBLIC "-//W3C//DTD SVG 1.1//EN" "http://www.w3.org/Graphics/SVG/1.1/DTD/svg11.dtd"><svg t="1641383920878" class="icon" viewBox="0 0 1024 1024" version="1.1" xmlns="http://www.w3.org/2000/svg" p-id="2250" xmlns:xlink="http://www.w3.org/1999/xlink" width="200" height="200"><defs><style type="text/css"></style></defs><path d="M1007.983701 110.874633c0-52.132765-42.296642-94.429407-94.429407-94.429407s-94.4284 42.296642-94.4284 94.429407c0 31.415385 15.491719 59.048963 39.099826 76.170806L720.086025 646.403197c-12.542593 0.613185-24.346143 3.627757-35.104561 8.606734L371.263584 335.728082c4.61147-11.065513 7.193087-23.207372 7.193087-35.994635 0-52.131759-42.295635-94.429407-94.4284-94.429407-52.132765 0-94.429407 42.297648-94.429407 94.429407 0 30.523298 14.692263 57.35742 37.1324 74.604115L90.189473 835.321416c-49.796824 2.643037-89.449422 43.528045-89.449422 93.937047 0 52.132765 42.295635 94.430414 94.429407 94.430414 52.132765 0 94.4284-42.297648 94.4284-94.430414 0-31.413372-15.491719-58.955324-39.0374-76.168793l136.049431-459.172494c15.368881-0.461147 29.569791-4.673896 42.235222-11.527667l311.2591 316.82307c-6.147955 12.480167-9.836124 26.311556-9.836124 41.191097 0 52.129745 42.295635 94.427393 94.4284 94.427393 52.131759 0 94.4284-42.297648 94.4284-94.427393 0-31.294561-15.369887-58.713675-38.791723-75.924123l138.201115-459.66586C968.331103 202.16965 1007.983701 161.286655 1007.983701 110.874633" p-id="2251" fill="#ffffff"></path></svg>