<?xml version="1.0" standalone="no"?><!DOCTYPE svg PUBLIC "-//W3C//DTD SVG 1.1//EN" "http://www.w3.org/Graphics/SVG/1.1/DTD/svg11.dtd"><svg t="1652434097357" class="icon" viewBox="0 0 1024 1024" version="1.1" xmlns="http://www.w3.org/2000/svg" p-id="5846" xmlns:xlink="http://www.w3.org/1999/xlink" width="200" height="200"><defs><style type="text/css"></style></defs><path d="M212.04992 373.76c-53.23264 0.29184-99.2256 31.5904-121.30304 76.9792C112.92672 405.13536 159.25248 373.76 212.79744 373.76h-0.74752z" p-id="5847" fill="#ffffff"></path><path d="M212.80256 649.47712C137.68704 649.47712 76.8 587.75552 76.8 511.616c0-13.63456 1.95072-26.80832 5.59104-39.2448l0.11776-0.4096a137.73312 137.73312 0 0 1 8.23808-21.2224C112.92672 405.13536 159.25248 373.76 212.79744 373.76h598.40512C886.31296 373.76 947.2 435.4816 947.2 511.616c0 76.13952-60.88704 137.86112-135.99744 137.86112H212.80256z m598.4-55.1424c45.06624 0 81.59744-37.03296 81.59744-82.71872 0-45.68064-36.5312-82.7136-81.59744-82.7136h-271.99488a138.4704 138.4704 0 0 1 27.19232 82.71872 138.4704 138.4704 0 0 1-27.19232 82.7136h271.99488z" p-id="5848" fill="#ffffff"></path></svg>