<?xml version="1.0" standalone="no"?><!DOCTYPE svg PUBLIC "-//W3C//DTD SVG 1.1//EN" "http://www.w3.org/Graphics/SVG/1.1/DTD/svg11.dtd"><svg t="1641384639816" class="icon" viewBox="0 0 1424 1024" version="1.1" xmlns="http://www.w3.org/2000/svg" p-id="44561" xmlns:xlink="http://www.w3.org/1999/xlink" width="278.125" height="200"><defs><style type="text/css"></style></defs><path d="M1227.212 0H624.928c-68.962 0-135.867 13.528-198.8 40.29-60.876 25.732-115.722 62.64-162.629 109.693-47.053 47.053-83.96 101.753-109.693 162.775-26.762 63.081-40.29 130.132-40.29 199.242s13.528 136.16 40.29 199.242A522.733 522.733 0 0 0 182.038 768H22.056v256H625.37c69.11 0 136.161-13.528 199.242-40.29 61.023-25.732 115.722-62.64 162.776-109.693 47.053-47.053 83.96-101.753 109.693-162.775 26.761-63.081 40.29-130.132 40.29-199.242 0-91.019-23.527-178.509-68.522-256h158.364V0m-663.16 963.713H82.344V828.14H303.2a464.7 464.7 0 0 1-49.7-60.287c-50.288-72.786-79.696-161.011-79.696-256-0.147-248.942 202.623-451.566 451.565-451.566h541.556V195.86H953.42l35.437 48.083c57.64 78.079 88.225 170.862 88.225 268.204 0 249.09-202.624 451.713-451.713 451.713h-1.029l-60.287-0.147z" p-id="44562" fill="#ffffff"></path><path d="M528.322 510.97c-0.589 53.23 43.377 96.754 98.224 97.342 52.494-2.5 93.96-44.406 94.548-95.43 0.588-51.023-39.996-93.665-92.49-97.342-54.846-0.44-99.694 42.202-100.282 95.43z" p-id="44563" fill="#ffffff"></path><path d="M624.634 781.822c-72.05 0-139.837-28.085-190.86-78.962-51.024-51.023-78.962-118.662-78.962-190.86 0-72.05 28.085-139.837 78.962-190.86 51.023-51.024 118.663-78.962 190.86-78.962 72.05 0 139.837 28.085 190.86 78.962 51.024 51.023 78.962 118.662 78.962 190.86 0 72.05-28.085 139.837-78.961 190.86-51.024 50.877-118.81 78.962-190.86 78.962z m0-479.504c-115.575 0-209.535 93.96-209.535 209.535s93.96 209.535 209.535 209.535 209.535-93.96 209.535-209.535-93.96-209.535-209.535-209.535z" p-id="44564" fill="#ffffff"></path></svg>