<?xml version="1.0" standalone="no"?><!DOCTYPE svg PUBLIC "-//W3C//DTD SVG 1.1//EN" "http://www.w3.org/Graphics/SVG/1.1/DTD/svg11.dtd"><svg t="1645274809971" class="icon" viewBox="0 0 1024 1024" version="1.1" xmlns="http://www.w3.org/2000/svg" p-id="10976" xmlns:xlink="http://www.w3.org/1999/xlink" width="200" height="200"><defs><style type="text/css"></style></defs><path d="M711.15 757.38H311.52c-136.12 0-247.48-111.37-247.48-247.48v-16.23c0-136.12 111.37-247.48 247.48-247.48h399.63c136.12 0 247.48 111.37 247.48 247.48v16.23c0.01 136.11-111.36 247.48-247.48 247.48z m183.58-247.44v-16.32c0-100.95-82.59-183.54-183.54-183.54H311.47c-100.95 0-183.54 82.59-183.54 183.54v16.32c0 100.95 82.59 183.54 183.54 183.54H711.2c100.94 0 183.53-82.59 183.53-183.54z" p-id="10977" fill="#ffffff"></path><path d="M351.58 507.76m-127.8 0a127.8 127.8 0 1 0 255.6 0 127.8 127.8 0 1 0-255.6 0Z" p-id="10978" fill="#ffffff"></path></svg>