<?xml version="1.0" standalone="no"?><!DOCTYPE svg PUBLIC "-//W3C//DTD SVG 1.1//EN" "http://www.w3.org/Graphics/SVG/1.1/DTD/svg11.dtd"><svg t="1645187439775" class="icon" viewBox="0 0 1024 1024" version="1.1" xmlns="http://www.w3.org/2000/svg" p-id="3087" xmlns:xlink="http://www.w3.org/1999/xlink" width="200" height="200"><defs><style type="text/css"></style></defs><path d="M970.891653 353.830884c0-119.70249-97.03351-216.735999-216.735999-216.735999-70.77902 0-133.434455 34.099797-172.982085 86.576666a356.827727 356.827727 0 0 0-78.538705-8.701549c-171.943893 0-315.40707 121.982231-348.554299 284.132868-60.482723 37.192968-100.972218 103.78711-100.972218 180.003261 0 116.737755 94.646738 211.384493 211.384493 211.384493h476.284048c116.737755 0 211.384493-94.646738 211.384493-211.384493 0-60.536238-25.601605-114.939649-66.412191-153.427681 51.66344-39.611849 85.142463-101.732132 85.142463-171.847566z m-216.735999-141.814913c78.196208 0 141.814913 63.618705 141.814913 141.814913 0 44.867028-21.127746 84.714342-53.750528 110.722662-29.45469-94.272132-97.044213-171.665614-184.744696-214.135167 25.355436-23.739281 59.294688-38.402408 96.680311-38.402408z m-13.378766 603.542864h-476.284048c-75.242177 0-136.463407-61.22123-136.463407-136.463407 0-47.606999 24.402868-91.050526 65.288375-116.170495l27.656584-17.007087 6.507432-31.809353c26.554174-129.923866 142.285846-224.228108 275.15304-224.228108s248.598867 94.304241 275.153041 224.217405l6.507431 31.809353 27.645881 17.007087c40.885507 25.141376 65.299078 68.5742 65.299078 116.181198 0 75.242177-61.22123 136.463407-136.463407 136.463407z" fill="#ffffff" p-id="3088"></path></svg>