<?xml version="1.0" standalone="no"?><!DOCTYPE svg PUBLIC "-//W3C//DTD SVG 1.1//EN" "http://www.w3.org/Graphics/SVG/1.1/DTD/svg11.dtd"><svg t="1645187468721" class="icon" viewBox="0 0 1024 1024" version="1.1" xmlns="http://www.w3.org/2000/svg" p-id="3952" xmlns:xlink="http://www.w3.org/1999/xlink" width="200" height="200"><defs><style type="text/css"></style></defs><path d="M942.102 904.571c-21.954 35.544-57.556 55.418-99.308 55.418h-661.6c-41.752 0-77.35-19.874-99.3-55.418-21.945-35.544-23.78-76.303-5.111-113.685l330.8-662.296c20.324-40.686 58.976-64.597 104.411-64.597 45.448 0 84.095 23.91 104.411 64.597l330.804 662.296c18.674 37.382 16.839 78.142-5.107 113.685zM512 800c26.51 0 48-21.49 48-48s-21.49-48-48-48-48 21.49-48 48 21.49 48 48 48z m72-408c0-39.765-32.235-72-72-72s-72 32.235-72 72v6l48 259.5h0.051c0.775 12.555 11.198 22.5 23.949 22.5 12.75 0 23.174-9.945 23.948-22.5H536L584 398v-6z" p-id="3953" fill="#ffffff"></path></svg>