<?xml version="1.0" standalone="no"?><!DOCTYPE svg PUBLIC "-//W3C//DTD SVG 1.1//EN" "http://www.w3.org/Graphics/SVG/1.1/DTD/svg11.dtd"><svg t="1641384332030" class="icon" viewBox="0 0 1024 1024" version="1.1" xmlns="http://www.w3.org/2000/svg" p-id="27034" xmlns:xlink="http://www.w3.org/1999/xlink" width="200" height="200"><defs><style type="text/css"></style></defs><path d="M701.605 1007.048H461.791a180.026 180.026 0 0 1-159.546-96.454 93.481 93.481 0 0 1-10.9-17.507l-115.283-205.13a99.097 99.097 0 0 1 170.777-99.097V379.435a99.097 99.097 0 0 1 198.193 0v165.161h153.93A176.723 176.723 0 0 1 875.356 720.99v112.31a173.75 173.75 0 0 1-173.75 173.749zM264.258 610.661a33.032 33.032 0 0 0-29.729 47.566l115.283 205.461a38.317 38.317 0 0 0 5.615 8.588 33.032 33.032 0 0 1 4.294 6.277 114.292 114.292 0 0 0 102.07 62.43h239.814A107.685 107.685 0 0 0 809.29 833.299v-112.31a110.658 110.658 0 0 0-110.327-110.327H512a33.032 33.032 0 0 1-33.032-33.032V379.435a33.032 33.032 0 0 0-66.065 0v297.29a48.227 48.227 0 0 1-24.113 40.96 33.032 33.032 0 0 1-41.951-11.23l-49.879-73.332-2.643-4.625a33.032 33.032 0 0 0-30.059-17.837z" p-id="27035" fill="#ffffff"></path><path d="M918.452 130.145v232.258a116.129 116.129 0 0 1-116.13 116.129H599.098v-87.097a145.161 145.161 0 0 0-290.323 0v87.097h-14.516a65.323 65.323 0 0 0-10.742 0h-61.839a116.129 116.129 0 0 1-116.129-116.13V130.146a116.129 116.129 0 0 1 116.13-116.13h580.645a116.129 116.129 0 0 1 116.129 116.13z" p-id="27036" fill="#ffffff"></path></svg>