<?xml version="1.0" standalone="no"?><!DOCTYPE svg PUBLIC "-//W3C//DTD SVG 1.1//EN" "http://www.w3.org/Graphics/SVG/1.1/DTD/svg11.dtd"><svg t="1645187378324" class="icon" viewBox="0 0 1024 1024" version="1.1" xmlns="http://www.w3.org/2000/svg" p-id="2215" xmlns:xlink="http://www.w3.org/1999/xlink" width="200" height="200"><defs><style type="text/css"></style></defs><path d="M511.488 0C228.864 0 0 229.376 0 512s228.864 512 511.488 512C794.624 1024 1024 794.624 1024 512s-229.376-512-512.512-512z m21.76 556.416V219.52H438.912v392.32h1.472l243.84 140.8 47.296-81.728-198.144-114.432zM512 921.6A409.472 409.472 0 0 1 102.4 512c0-226.304 183.296-409.6 409.6-409.6 226.304 0 409.6 183.296 409.6 409.6 0 226.304-183.296 409.6-409.6 409.6z" fill="#ffffff" p-id="2216"></path></svg>