<?xml version="1.0" standalone="no"?><!DOCTYPE svg PUBLIC "-//W3C//DTD SVG 1.1//EN" "http://www.w3.org/Graphics/SVG/1.1/DTD/svg11.dtd"><svg t="1645274340436" class="icon" viewBox="0 0 1024 1024" version="1.1" xmlns="http://www.w3.org/2000/svg" p-id="36475" xmlns:xlink="http://www.w3.org/1999/xlink" width="200" height="200"><defs><style type="text/css"></style></defs><path d="M131.3 131m-73 0a73 73 0 1 0 146 0 73 73 0 1 0-146 0Z" p-id="36476" fill="#ffffff"></path><path d="M892.9 338.5m-73 0a73 73 0 1 0 146 0 73 73 0 1 0-146 0Z" p-id="36477" fill="#ffffff"></path><path d="M892.9 780.5m-73 0a73 73 0 1 0 146 0 73 73 0 1 0-146 0Z" p-id="36478" fill="#ffffff"></path><path d="M238.9 884.5m-73 0a73 73 0 1 0 146 0 73 73 0 1 0-146 0Z" p-id="36479" fill="#ffffff"></path><path d="M213.5 918.9L95.2 90.1l827.7 225.5v490.5L213.5 918.9z m-46-747L264.3 850l598.6-95.2V361.4L167.5 171.9z" p-id="36480" fill="#ffffff"></path></svg>