<?xml version="1.0" standalone="no"?><!DOCTYPE svg PUBLIC "-//W3C//DTD SVG 1.1//EN" "http://www.w3.org/Graphics/SVG/1.1/DTD/svg11.dtd"><svg t="1645187525134" class="icon" viewBox="0 0 1024 1024" version="1.1" xmlns="http://www.w3.org/2000/svg" p-id="9177" xmlns:xlink="http://www.w3.org/1999/xlink" width="200" height="200"><defs><style type="text/css"></style></defs><path d="M0 0h1024v1024H0z" fill="#ffffff" fill-opacity=".01" p-id="9178"></path><path d="M30.354286 219.428571a42.788571 42.788571 0 1 1 85.577143 0v386.779429A249.782857 249.782857 0 0 0 365.714286 855.990857h292.571428a249.782857 249.782857 0 0 0 249.782857-249.782857V219.428571a42.788571 42.788571 0 1 1 85.577143 0v386.779429A335.36 335.36 0 0 1 658.285714 941.568H365.714286A335.36 335.36 0 0 1 30.354286 606.208V219.428571z" fill="#ffffff" p-id="9179"></path><path d="M242.395429 621.202286a42.788571 42.788571 0 1 1-45.933715-72.118857l114.834286-73.142858a42.788571 42.788571 0 0 1 52.443429 4.973715l52.004571 49.298285 77.604571-53.394285a42.788571 42.788571 0 0 1 52.004572 2.633143l59.684571 50.761142 68.608-52.224a42.788571 42.788571 0 0 1 50.468572-1.097142l104.886857 73.142857a42.788571 42.788571 0 1 1-48.859429 70.217143L700.708571 564.955429l-71.241142 54.198857a42.788571 42.788571 0 0 1-53.613715-1.462857l-60.928-51.858286-79.140571 54.564571a42.788571 42.788571 0 0 1-53.686857-4.169143L329.142857 566.052571l-86.747428 55.149715zM242.395429 401.773714a42.788571 42.788571 0 1 1-45.933715-72.118857l114.834286-73.142857a42.788571 42.788571 0 0 1 52.443429 4.973714l52.004571 49.298286 77.604571-53.394286a42.788571 42.788571 0 0 1 52.004572 2.633143l59.684571 50.761143 68.608-52.224a42.788571 42.788571 0 0 1 50.468572-1.097143l104.886857 73.142857a42.788571 42.788571 0 1 1-48.859429 70.217143L700.708571 345.526857l-71.241142 54.198857a42.788571 42.788571 0 0 1-53.613715-1.462857l-60.928-51.858286-79.140571 54.564572a42.788571 42.788571 0 0 1-53.686857-4.169143L329.142857 346.624l-86.747428 55.149714z" fill="#ffffff" p-id="9180"></path></svg>