<?xml version="1.0" standalone="no"?><!DOCTYPE svg PUBLIC "-//W3C//DTD SVG 1.1//EN" "http://www.w3.org/Graphics/SVG/1.1/DTD/svg11.dtd"><svg class="icon" width="200px" height="200.00px" viewBox="0 0 1024 1024" version="1.1" xmlns="http://www.w3.org/2000/svg"><path d="M145.6 0c-44.8 0-80 36.8-80 81.6v860.8c0 44.8 35.2 81.6 80 81.6h732.8c44.8 0 81.6-36.8 81.6-81.6V324.8L657.6 0h-512z" fill="#F7622C" /><path d="M960 326.4v16H755.2s-100.8-20.8-99.2-108.8c0 0 4.8 92.8 97.6 92.8H960z" fill="#F54921" /><path d="M657.6 0v233.6c0 25.6 17.6 92.8 97.6 92.8H960L657.6 0z" fill="#FFFFFF" /><path d="M366.4 812.8h-4.8L240 758.4c-8-3.2-12.8-11.2-12.8-20.8 0-8 4.8-16 12.8-19.2l121.6-54.4c1.6 0 3.2-1.6 4.8-1.6 8 0 14.4 6.4 14.4 14.4 0 6.4-3.2 11.2-8 14.4l-112 48 112 46.4c4.8 3.2 8 8 8 14.4 0 8-6.4 12.8-14.4 12.8z m136-176L432 849.6c-3.2 6.4-8 9.6-14.4 9.6-9.6 0-16-6.4-16-14.4 0-1.6 1.6-3.2 1.6-4.8l70.4-211.2c3.2-6.4 8-11.2 14.4-11.2 9.6 0 14.4 6.4 14.4 14.4v4.8z m163.2 121.6L544 812.8h-4.8c-8 0-14.4-4.8-14.4-12.8 0-6.4 3.2-11.2 8-14.4l113.6-46.4-113.6-48c-4.8-3.2-8-8-8-14.4 0-8 6.4-14.4 14.4-14.4 1.6 0 3.2 1.6 4.8 1.6l121.6 54.4c8 3.2 12.8 11.2 12.8 19.2 0 9.6-4.8 17.6-12.8 20.8z" fill="#FFFFFF" /></svg>