<?xml version="1.0" standalone="no"?><!DOCTYPE svg PUBLIC "-//W3C//DTD SVG 1.1//EN" "http://www.w3.org/Graphics/SVG/1.1/DTD/svg11.dtd"><svg t="1686203968509" class="icon" viewBox="0 0 1024 1024" version="1.1" xmlns="http://www.w3.org/2000/svg" p-id="2195" xmlns:xlink="http://www.w3.org/1999/xlink" width="200" height="200"><path d="M145.6 1.6C100.8 1.6 64 36.8 64 81.6V944c0 44.8 36.8 80 81.6 80h732.8c44.8 0 81.6-35.2 81.6-80V326.4L657.6 1.6h-512z" fill="#0C77C6" p-id="2196"></path><path d="M960 326.4v16H755.2s-100.8-20.8-99.2-108.8c0 0 4.8 92.8 97.6 92.8H960z" fill="#0959B7" p-id="2197"></path><path d="M657.6 0v233.6c0 25.6 17.6 92.8 97.6 92.8H960L657.6 0z" fill="#FFFFFF" p-id="2198"></path><path d="M304 784h-54.4v67.2c0 6.4-4.8 11.2-11.2 11.2-6.4 0-12.8-4.8-12.8-11.2V686.4c0-9.6 8-17.6 17.6-17.6H304c38.4 0 59.2 25.6 59.2 57.6S340.8 784 304 784z m-3.2-94.4h-51.2v73.6h51.2c22.4 0 38.4-16 38.4-36.8 0-22.4-16-36.8-38.4-36.8zM464 864c-28.8 0-51.2-9.6-67.2-24-1.6-1.6-3.2-4.8-3.2-8 0-6.4 4.8-12.8 11.2-12.8 1.6 0 4.8 0 6.4 3.2 12.8 11.2 32 20.8 54.4 20.8 33.6 0 44.8-19.2 44.8-33.6 0-49.6-113.6-22.4-113.6-91.2 0-32 28.8-52.8 65.6-52.8 25.6 0 46.4 8 62.4 20.8 1.6 1.6 3.2 4.8 3.2 8 0 6.4-4.8 11.2-11.2 11.2-1.6 0-4.8 0-6.4-1.6-14.4-12.8-32-17.6-49.6-17.6-22.4 0-40 12.8-40 30.4 0 43.2 115.2 19.2 115.2 91.2 0 27.2-19.2 56-72 56z m179.2-3.2h-48c-9.6 0-17.6-8-17.6-17.6v-156.8c0-9.6 8-17.6 17.6-17.6h48c60.8 0 99.2 41.6 99.2 96s-38.4 96-99.2 96z m0-171.2h-41.6v150.4h41.6c48 0 75.2-33.6 75.2-75.2s-27.2-75.2-75.2-75.2z" fill="#FFFFFF" p-id="2199"></path></svg>