<?xml version="1.0" standalone="no"?><!DOCTYPE svg PUBLIC "-//W3C//DTD SVG 1.1//EN" "http://www.w3.org/Graphics/SVG/1.1/DTD/svg11.dtd"><svg t="1686203972731" class="icon" viewBox="0 0 1024 1024" version="1.1" xmlns="http://www.w3.org/2000/svg" p-id="2340" xmlns:xlink="http://www.w3.org/1999/xlink" width="200" height="200"><path d="M145.6 0C100.8 0 64 35.2 64 80v862.4C64 987.2 100.8 1024 145.6 1024h732.8c44.8 0 81.6-36.8 81.6-81.6V324.8L657.6 0h-512z" fill="#FC7B24" p-id="2341"></path><path d="M960 326.4v16H755.2s-100.8-20.8-99.2-108.8c0 0 4.8 92.8 97.6 92.8H960z" fill="#FB5C1B" p-id="2342"></path><path d="M657.6 0v233.6c0 25.6 17.6 92.8 97.6 92.8H960L657.6 0z" fill="#FFFFFF" p-id="2343"></path><path d="M374.4 860.8c-3.2 0-6.4 0-9.6-3.2l-59.2-80-59.2 80c-3.2 3.2-6.4 3.2-9.6 3.2-6.4 0-11.2-4.8-11.2-11.2 0-1.6 0-4.8 1.6-6.4l62.4-81.6-57.6-78.4c-1.6-1.6-1.6-3.2-1.6-6.4 0-4.8 4.8-11.2 11.2-11.2 3.2 0 6.4 1.6 9.6 4.8l54.4 73.6 54.4-73.6c3.2-3.2 6.4-4.8 9.6-4.8 6.4 0 11.2 4.8 11.2 11.2 0 3.2 0 4.8-1.6 6.4l-57.6 76.8 62.4 83.2c1.6 1.6 1.6 4.8 1.6 6.4 0 6.4-4.8 11.2-11.2 11.2z m230.4 0c-6.4 0-11.2-4.8-11.2-11.2v-148.8l-64 156.8c-1.6 1.6-3.2 3.2-6.4 3.2s-4.8-1.6-6.4-3.2l-64-156.8v148.8c0 6.4-4.8 11.2-11.2 11.2-8 0-12.8-4.8-12.8-11.2V684.8c0-9.6 9.6-19.2 20.8-19.2 8 0 16 4.8 19.2 12.8l54.4 134.4 54.4-134.4c3.2-8 11.2-12.8 19.2-12.8 11.2 0 20.8 9.6 20.8 19.2v164.8c0 6.4-4.8 11.2-12.8 11.2z m169.6-1.6h-88c-9.6 0-17.6-8-17.6-17.6V676.8c0-6.4 6.4-11.2 12.8-11.2s11.2 4.8 11.2 11.2v161.6h81.6c4.8 0 9.6 4.8 9.6 9.6 0 6.4-4.8 11.2-9.6 11.2z" fill="#FFFFFF" p-id="2344"></path></svg>