<?xml version="1.0" standalone="no"?><!DOCTYPE svg PUBLIC "-//W3C//DTD SVG 1.1//EN" "http://www.w3.org/Graphics/SVG/1.1/DTD/svg11.dtd"><svg class="icon" width="200px" height="200.00px" viewBox="0 0 1024 1024" version="1.1" xmlns="http://www.w3.org/2000/svg"><path d="M145.6 0C100.8 0 64 35.2 64 80v862.4C64 987.2 100.8 1024 145.6 1024h732.8c44.8 0 81.6-36.8 81.6-81.6V324.8L657.6 0h-512z" fill="#8199AF" /><path d="M960 326.4v16H755.2s-100.8-20.8-99.2-108.8c0 0 4.8 92.8 97.6 92.8H960z" fill="#617F9B" /><path d="M657.6 0v233.6c0 25.6 17.6 92.8 97.6 92.8H960L657.6 0z" fill="#FFFFFF" /><path d="M358.4 862.4h-120c-6.4 0-12.8-4.8-12.8-12.8 0-3.2 1.6-6.4 3.2-8l105.6-150.4h-99.2c-4.8 0-9.6-4.8-9.6-11.2 0-4.8 4.8-9.6 9.6-9.6h120c6.4 0 11.2 4.8 11.2 12.8 0 3.2 0 6.4-1.6 8l-107.2 150.4h100.8c6.4 0 11.2 4.8 11.2 9.6 0 6.4-4.8 11.2-11.2 11.2z m64 1.6c-6.4 0-11.2-4.8-11.2-11.2V680c0-6.4 4.8-11.2 12.8-11.2 6.4 0 11.2 4.8 11.2 11.2v172.8c0 6.4-4.8 11.2-12.8 11.2z m142.4-78.4H512v67.2c0 6.4-6.4 11.2-12.8 11.2s-11.2-4.8-11.2-11.2V688c0-9.6 6.4-17.6 16-17.6h60.8c38.4 0 60.8 27.2 60.8 57.6s-22.4 57.6-60.8 57.6z m-3.2-94.4H512v73.6h49.6c22.4 0 38.4-14.4 38.4-36.8 0-20.8-16-36.8-38.4-36.8z" fill="#FFFFFF" /></svg>