<?xml version="1.0" standalone="no"?><!DOCTYPE svg PUBLIC "-//W3C//DTD SVG 1.1//EN" "http://www.w3.org/Graphics/SVG/1.1/DTD/svg11.dtd"><svg t="1661363498284" class="icon" viewBox="0 0 1024 1024" version="1.1" xmlns="http://www.w3.org/2000/svg" p-id="26872" xmlns:xlink="http://www.w3.org/1999/xlink" width="200" height="200"><defs><style type="text/css"></style></defs><path d="M594.601737 716.593828a10.677965 10.677965 0 0 0-14.993033 0l-154.903626 154.903625c-71.747147 71.67401-192.78846 79.353368-271.995554 0-79.353368-79.353368-71.67401-200.248408 0-271.995554L307.613149 444.67141a10.677965 10.677965 0 0 0 0-15.06617l-53.02414-53.097277a10.677965 10.677965 0 0 0-15.066169 0L84.619214 531.411589a288.231912 288.231912 0 0 0 0 407.956764 288.305049 288.305049 0 0 0 407.956764 0l154.903625-154.903626a10.677965 10.677965 0 0 0 0-15.06617l-52.804729-52.804729z m344.839753-631.974614a288.158775 288.158775 0 0 0-407.956764 0l-155.049899 154.903626a10.677965 10.677965 0 0 0 0 15.066169l52.951003 52.951004c4.095658 4.095658 10.897375 4.095658 14.993033 0l154.976762-154.976763c71.67401-71.67401 192.78846-79.280232 271.922418 0 79.353368 79.353368 71.747147 200.321545 0 272.068691L716.374417 579.462431a10.677965 10.677965 0 0 0 0 15.066169l53.097277 53.02414c4.095658 4.168794 10.970512 4.168794 15.06617 0l154.903626-154.903626a288.670733 288.670733 0 0 0 0-408.103037zM642.798852 325.824199a10.677965 10.677965 0 0 0-15.06617 0L325.751062 627.659546a10.677965 10.677965 0 0 0 0 15.066169l52.80473 52.80473c4.168794 4.095658 10.970512 4.095658 15.06617 0l301.835346-301.908483a10.677965 10.677965 0 0 0 0-15.06617l-52.658456-52.731593z" p-id="26873" fill="#1296db"></path></svg>