<?xml version="1.0" standalone="no"?><!DOCTYPE svg PUBLIC "-//W3C//DTD SVG 1.1//EN" "http://www.w3.org/Graphics/SVG/1.1/DTD/svg11.dtd"><svg t="1661499049506" class="icon" viewBox="0 0 1024 1024" version="1.1" xmlns="http://www.w3.org/2000/svg" p-id="13377" xmlns:xlink="http://www.w3.org/1999/xlink" width="200" height="200"><path d="M359.04 387.84a32 32 0 0 0-64 0v134.4H128a44.8 44.8 0 0 0-44.8 44.8v337.28a44.8 44.8 0 0 0 44.8 44.8h739.2a44.8 44.8 0 0 0 44.8-44.8V567.04a44.8 44.8 0 0 0-44.8-44.8H359.04z m488.96 497.28H147.2V586.24h700.8zM236.8 320a90.24 90.24 0 0 1 180.48 0 32 32 0 0 0 64 0A154.24 154.24 0 0 0 172.8 320a32 32 0 0 0 64 0z" fill="#1296db" p-id="13378"></path><path d="M74.24 352a32 32 0 0 0 32-32 220.8 220.8 0 0 1 441.6 0 32 32 0 0 0 64 0 284.8 284.8 0 0 0-569.6 0 32 32 0 0 0 32 32zM717.44 804.48a69.12 69.12 0 1 0-69.12-69.12 69.12 69.12 0 0 0 69.12 69.12z m0-106.24a37.12 37.12 0 1 1-37.12 37.12 37.12 37.12 0 0 1 37.12-36.48z" fill="#1296db" p-id="13379"></path></svg>