<?xml version="1.0" standalone="no"?><!DOCTYPE svg PUBLIC "-//W3C//DTD SVG 1.1//EN" "http://www.w3.org/Graphics/SVG/1.1/DTD/svg11.dtd"><svg t="1645188052630" class="icon" viewBox="0 0 1024 1024" version="1.1" xmlns="http://www.w3.org/2000/svg" p-id="27024" xmlns:xlink="http://www.w3.org/1999/xlink" width="200" height="200"><defs><style type="text/css"></style></defs><path d="M602.680889 0c0.170667 0 0.284444 0.113778 0.284444 0.284444V33.564444c0 0.170667-0.170667 0.284444-0.284444 0.284445L549.660444 33.792v55.523556l4.380445 0.113777c117.020444 5.688889 210.830222 95.232 210.830222 203.946667v360.448c0 84.536889-56.718222 157.468444-136.988444 188.416l-0.056889 110.648889h167.879111c0.398222 0 0.739556 0.341333 0.739555 0.682667v69.745777c0 0.398222-0.284444 0.682667-0.682666 0.682667H228.295111C227.896889 1024 227.555556 1023.715556 227.555556 1023.317333v-69.745777c0-0.341333 0.341333-0.682667 0.739555-0.682667h167.822222v-110.648889C315.904 811.349333 259.128889 738.417778 259.128889 653.824V293.376c0-110.023111 96.142222-200.476444 215.153778-204.117333V33.792l-52.906667 0.056889c-0.170667 0-0.284444-0.113778-0.284444-0.284445V0.284444c0-0.170667 0.113778-0.284444 0.227555-0.284444h181.361778zM542.264889 858.055111H481.735111c-14.108444 0-27.932444-1.251556-41.358222-3.584v98.417778h143.189333l0.056889-98.417778a240.867556 240.867556 0 0 1-41.358222 3.584z" p-id="27025" fill="#ffffff"></path></svg>