<?xml version="1.0" standalone="no"?><!DOCTYPE svg PUBLIC "-//W3C//DTD SVG 1.1//EN" "http://www.w3.org/Graphics/SVG/1.1/DTD/svg11.dtd"><svg t="1641386058234" class="icon" viewBox="0 0 1024 1024" version="1.1" xmlns="http://www.w3.org/2000/svg" p-id="57261" xmlns:xlink="http://www.w3.org/1999/xlink" width="200" height="200"><defs><style type="text/css"></style></defs><path d="M512 0L0 372.622222l196.266667 603.022222h631.466666L1024 372.622222 512 0z m28.444444 85.333333l392.533334 284.444445-91.022222 31.288889L540.444444 142.222222V85.333333z m0 128l244.622223 207.644445-244.622223 79.644444V213.333333z m270.222223 253.155556l-153.6 224.711111-102.4-142.222222 256-82.488889z m-199.111111 250.311111l-264.533334 93.866667 167.822222-227.555556 96.711112 133.688889z m-142.222223-162.133333l-164.977777 224.711111L227.555556 486.4l241.777777 68.266667z m-224.711111-119.466667l241.777778-204.8v273.066667l-241.777778-68.266667zM486.4 85.333333v76.8l-304.355556 256-113.777777-31.288889L486.4 85.333333zM224.711111 887.466667L79.644444 446.577778l88.177778 25.6 93.866667 364.088889-36.977778 51.2z m39.822222 34.133333l25.6-34.133333 352.711111-125.155556 116.622223 159.288889H264.533333z m537.6-34.133333l-110.933333-150.755556 199.111111-295.822222-2.844444-2.844445 65.422222-22.755555-150.755556 472.177778z" p-id="57262" fill="#ffffff"></path></svg>