<?xml version="1.0" standalone="no"?><!DOCTYPE svg PUBLIC "-//W3C//DTD SVG 1.1//EN" "http://www.w3.org/Graphics/SVG/1.1/DTD/svg11.dtd"><svg t="1641384745514" class="icon" viewBox="0 0 1024 1024" version="1.1" xmlns="http://www.w3.org/2000/svg" p-id="50253" xmlns:xlink="http://www.w3.org/1999/xlink" width="200" height="200"><defs><style type="text/css"></style></defs><path d="M512 512m-256 0a256 256 0 1 0 512 0 256 256 0 1 0-512 0Z" p-id="50254" fill="#ffffff"></path><path d="M512 960C264.576 960 64 759.424 64 512S264.576 64 512 64s448 200.576 448 448-200.576 448-448 448z m0-128c176.736 0 320-143.264 320-320S688.736 192 512 192 192 335.264 192 512s143.264 320 320 320z" p-id="50255" fill="#ffffff"></path></svg>