<?xml version="1.0" standalone="no"?><!DOCTYPE svg PUBLIC "-//W3C//DTD SVG 1.1//EN" "http://www.w3.org/Graphics/SVG/1.1/DTD/svg11.dtd"><svg t="1645187730931" class="icon" viewBox="0 0 1024 1024" version="1.1" xmlns="http://www.w3.org/2000/svg" p-id="14311" xmlns:xlink="http://www.w3.org/1999/xlink" width="200" height="200"><defs><style type="text/css"></style></defs><path d="M235.792754 460.8h549.845333v421.660444H235.792754zM0.045198 871.153778V457.671111a101.717333 101.717333 0 1 1 203.377778-4.579555V871.153778a101.717333 101.717333 0 0 1-203.377778 0z m820.622222 0V457.671111a101.717333 101.717333 0 0 1 203.377778 0v413.482667a101.774222 101.774222 0 0 1-203.448889 5.162666v-5.162666zM805.662976 99.754667c-3.669333-16.554667-18.688-24.049778-35.555556-22.087111-58.88 0.782222-83.712-0.298667-143.004444 0-12.956444-0.298667-135.267556 0-135.267556 0H250.242532c-16.099556-0.867556-27.292444 5.162667-30.961778 21.674666-0.312889 1.422222 0 21.888 0.355555 29.169778 0.526222 15.943111 14.222222 22.912 30.151111 22.186667h207.459556v99.086222H405.634532a50.574222 50.574222 0 0 0-36.48 15.488 53.461333 53.461333 0 0 0-15.018667 37.304889v66.119111a51.968 51.968 0 0 0 51.2 52.736v-0.298667H610.576754a51.968 51.968 0 0 0 51.2-52.693333v-65.905778a53.831111 53.831111 0 0 0-14.648889-37.361778 50.872889 50.872889 0 0 0-36.138667-15.488h-50.986666V150.755556c0-2.218667 211.598222 0 211.598222 0a30.961778 30.961778 0 0 0 34.787555-25.230223 96.142222 96.142222 0 0 0-0.725333-25.770666z" p-id="14312" fill="#ffffff"></path></svg>