<?xml version="1.0" standalone="no"?><!DOCTYPE svg PUBLIC "-//W3C//DTD SVG 1.1//EN" "http://www.w3.org/Graphics/SVG/1.1/DTD/svg11.dtd"><svg t="1686203963787" class="icon" viewBox="0 0 1024 1024" version="1.1" xmlns="http://www.w3.org/2000/svg" p-id="2050" xmlns:xlink="http://www.w3.org/1999/xlink" width="200" height="200"><path d="M145.6 0C100.8 0 64 36.8 64 81.6v860.8C64 987.2 100.8 1024 145.6 1024h732.8c44.8 0 81.6-36.8 81.6-81.6V324.8L657.6 0h-512z" fill="#E53C3C" p-id="2051"></path><path d="M960 324.8v16H755.2s-100.8-19.2-99.2-107.2c0 0 3.2 91.2 96 91.2h208z" fill="#DE2D2D" p-id="2052"></path><path d="M657.6 0v233.6c0 25.6 17.6 91.2 97.6 91.2H960L657.6 0z" fill="#FFFFFF" p-id="2053"></path><path d="M344 689.6h-94.4V752h91.2c6.4 0 11.2 4.8 11.2 11.2 0 4.8-4.8 9.6-11.2 9.6h-91.2v78.4c0 6.4-4.8 11.2-11.2 11.2-6.4 0-12.8-4.8-12.8-11.2V686.4c0-9.6 8-17.6 17.6-17.6h100.8c4.8 0 9.6 4.8 9.6 11.2 0 4.8-4.8 9.6-9.6 9.6zM496 860.8h-86.4c-9.6 0-17.6-8-17.6-17.6V678.4c0-6.4 4.8-11.2 12.8-11.2 6.4 0 11.2 4.8 11.2 11.2v161.6h80c6.4 0 11.2 3.2 11.2 9.6 0 6.4-4.8 11.2-11.2 11.2z m195.2 1.6c-4.8 0-8-3.2-11.2-8l-14.4-36.8h-96l-14.4 36.8c-1.6 4.8-6.4 8-11.2 8-6.4 0-12.8-6.4-12.8-12.8 0-1.6 0-3.2 1.6-4.8l65.6-164.8c3.2-8 11.2-12.8 19.2-12.8 9.6 0 16 4.8 19.2 12.8L704 844.8c0 1.6 1.6 3.2 1.6 4.8 0 6.4-6.4 12.8-14.4 12.8z m-73.6-169.6l-40 104h81.6l-41.6-104z" fill="#FFFFFF" p-id="2054"></path></svg>