<?xml version="1.0" standalone="no"?><!DOCTYPE svg PUBLIC "-//W3C//DTD SVG 1.1//EN" "http://www.w3.org/Graphics/SVG/1.1/DTD/svg11.dtd"><svg t="1684216478738" class="icon" viewBox="0 0 1024 1024" version="1.1" xmlns="http://www.w3.org/2000/svg" p-id="16821" xmlns:xlink="http://www.w3.org/1999/xlink" width="200" height="200"><path d="M928 392c8.8 0 16-7.2 16-16V192c0-8.8-7.2-16-16-16H744c-8.8 0-16 7.2-16 16v56H296v-56c0-8.8-7.2-16-16-16H96c-8.8 0-16 7.2-16 16v184c0 8.8 7.2 16 16 16h56v240H96c-8.8 0-16 7.2-16 16v184c0 8.8 7.2 16 16 16h184c8.8 0 16-7.2 16-16v-56h432v56c0 8.8 7.2 16 16 16h184c8.8 0 16-7.2 16-16V648c0-8.8-7.2-16-16-16h-56V392h56zM792 240h88v88h-88v-88z m-648 88v-88h88v88h-88z m88 456h-88v-88h88v88z m648-88v88h-88v-88h88z m-80-64h-56c-8.8 0-16 7.2-16 16v56H296v-56c0-8.8-7.2-16-16-16h-56V392h56c8.8 0 16-7.2 16-16v-56h432v56c0 8.8 7.2 16 16 16h56v240z" fill="#1296DB" p-id="16822"></path></svg>