<?xml version="1.0" standalone="no"?><!DOCTYPE svg PUBLIC "-//W3C//DTD SVG 1.1//EN" "http://www.w3.org/Graphics/SVG/1.1/DTD/svg11.dtd"><svg t="1703092773607" class="icon" viewBox="0 0 1024 1024" version="1.1" xmlns="http://www.w3.org/2000/svg" p-id="5335" xmlns:xlink="http://www.w3.org/1999/xlink" width="200" height="200"><path d="M869.4 376c-37.6-36-87.6-56-141-56-53.2 0-103.2 19.8-140.8 55.8l-35.2 31.8 66.2 64.2 34-30.8 0.2-0.2c20.2-19.2 47-30 75.4-30 28.4 0 55.2 10.6 75.4 29.8 20 19.2 30.8 44.6 30.8 71.6 0 27-11 52.2-30.8 71.2-20.2 19.2-47 30-75.4 30s-55.2-10.6-75.4-29.8L436.4 376c-37.8-36-87.8-56-140.8-56-53.4 0-103.4 19.8-141 56C116.8 412.2 96 460.4 96 512c0 51.4 20.8 99.8 58.6 136 37.6 36 87.6 56 141 56 53.4 0 103.4-19.8 140.8-56l75.6-72.2 75.4 72.2c37.8 36 87.8 56 140.8 56 53.4 0 103.4-19.8 140.8-55.8 38-36.2 58.8-84.4 58.8-136 0.2-51.6-20.6-100-58.4-136.2zM371 583.4c-20.2 19.2-47 30-75.4 30-28.4 0-55.2-10.6-75.4-29.8-20-19.2-30.8-44.6-30.8-71.6 0-27 11-52.2 30.8-71.2 20.2-19.2 47-30 75.4-30 28.4 0 55.2 10.6 75.4 29.8l74.8 71.6-74.8 71.2z" p-id="5336" fill="#ffffff"></path></svg>