<?xml version="1.0" standalone="no"?><!DOCTYPE svg PUBLIC "-//W3C//DTD SVG 1.1//EN" "http://www.w3.org/Graphics/SVG/1.1/DTD/svg11.dtd"><svg t="1684216296534" class="icon" viewBox="0 0 1024 1024" version="1.1" xmlns="http://www.w3.org/2000/svg" p-id="16114" xmlns:xlink="http://www.w3.org/1999/xlink" width="200" height="200"><path d="M902.095238 487.619048H828.952381V292.571429c0-53.638095-43.885714-97.52381-97.52381-97.52381h-195.047619V121.904762C536.380952 53.638095 482.742857 0 414.47619 0S292.571429 53.638095 292.571429 121.904762V195.047619H97.52381c-53.638095 0-97.52381 43.885714-97.52381 97.52381v185.295238h73.142857c73.142857 0 131.657143 58.514286 131.657143 131.657143S146.285714 741.180952 73.142857 741.180952H0v185.295238c0 53.638095 43.885714 97.52381 97.52381 97.52381h185.295238v-73.142857c0-73.142857 58.514286-131.657143 131.657142-131.657143s131.657143 58.514286 131.657143 131.657143v73.142857h185.295238c53.638095 0 97.52381-43.885714 97.52381-97.52381v-195.047619h73.142857c68.266667 0 121.904762-53.638095 121.904762-121.904761S970.361905 487.619048 902.095238 487.619048z" p-id="16115" fill="#1296db"></path></svg>