<?xml version="1.0" standalone="no"?><!DOCTYPE svg PUBLIC "-//W3C//DTD SVG 1.1//EN" "http://www.w3.org/Graphics/SVG/1.1/DTD/svg11.dtd"><svg t="1664110187778" class="icon" viewBox="0 0 1066 1024" version="1.1" xmlns="http://www.w3.org/2000/svg" p-id="12808" xmlns:xlink="http://www.w3.org/1999/xlink" width="208.203125" height="200"><path d="M469.333333 554.666667a42.666667 42.666667 0 1 0 0 85.333333 42.666667 42.666667 0 0 0 0-85.333333z m0-170.666667a42.666667 42.666667 0 1 0 0 85.333333 42.666667 42.666667 0 0 0 0-85.333333z m170.666667 0a42.666667 42.666667 0 1 0 0 85.333333 42.666667 42.666667 0 0 0 0-85.333333z m298.666667 170.666667a42.666667 42.666667 0 1 0 0-85.333334h-85.333334V384h85.333334a42.666667 42.666667 0 1 0 0-85.333333h-93.013334A128 128 0 0 0 768 221.013333V128a42.666667 42.666667 0 1 0-85.333333 0v85.333333h-85.333334V128a42.666667 42.666667 0 1 0-85.333333 0v85.333333h-85.333333V128a42.666667 42.666667 0 1 0-85.333334 0v93.013333A128 128 0 0 0 263.68 298.666667H170.666667a42.666667 42.666667 0 0 0 0 85.333333h85.333333v85.333333H170.666667a42.666667 42.666667 0 1 0 0 85.333334h85.333333v85.333333H170.666667a42.666667 42.666667 0 0 0 0 85.333333h93.013333A128 128 0 0 0 341.333333 802.986667V896a42.666667 42.666667 0 1 0 85.333334 0v-85.333333h85.333333v85.333333a42.666667 42.666667 0 1 0 85.333333 0v-85.333333h85.333334v85.333333a42.666667 42.666667 0 1 0 85.333333 0v-93.013333A128 128 0 0 0 845.653333 725.333333H938.666667a42.666667 42.666667 0 1 0 0-85.333333h-85.333334v-85.333333h85.333334z m-170.666667 128a42.666667 42.666667 0 0 1-42.666667 42.666666H384a42.666667 42.666667 0 0 1-42.666667-42.666666V341.333333a42.666667 42.666667 0 0 1 42.666667-42.666666h341.333333a42.666667 42.666667 0 0 1 42.666667 42.666666v341.333334z m-128-128a42.666667 42.666667 0 1 0 0 85.333333 42.666667 42.666667 0 0 0 0-85.333333z" fill="#1296db" p-id="12809"></path></svg>