<?xml version="1.0" standalone="no"?><!DOCTYPE svg PUBLIC "-//W3C//DTD SVG 1.1//EN" "http://www.w3.org/Graphics/SVG/1.1/DTD/svg11.dtd"><svg t="1664110356060" class="icon" viewBox="0 0 1024 1024" version="1.1" xmlns="http://www.w3.org/2000/svg" p-id="15620" xmlns:xlink="http://www.w3.org/1999/xlink" width="200" height="200"><path d="M896 1024H128a128 128 0 0 1-128-128V128a128 128 0 0 1 128-128h768a128 128 0 0 1 128 128v768a128 128 0 0 1-128 128zM157.44 92.8a64 64 0 0 0-64 64v710.4a64 64 0 0 0 64 64h709.12a64 64 0 0 0 64-64V156.8a64 64 0 0 0-64-64z" p-id="15621" fill="#1296db"></path><path d="M288 288m-48 0a48 48 0 1 0 96 0 48 48 0 1 0-96 0Z" p-id="15622" fill="#1296db"></path><path d="M400 240m48 0l288 0q48 0 48 48l0 0q0 48-48 48l-288 0q-48 0-48-48l0 0q0-48 48-48Z" p-id="15623" fill="#1296db"></path><path d="M288 512m-48 0a48 48 0 1 0 96 0 48 48 0 1 0-96 0Z" p-id="15624" fill="#1296db"></path><path d="M400 464m48 0l288 0q48 0 48 48l0 0q0 48-48 48l-288 0q-48 0-48-48l0 0q0-48 48-48Z" p-id="15625" fill="#1296db"></path><path d="M288 736m-48 0a48 48 0 1 0 96 0 48 48 0 1 0-96 0Z" p-id="15626" fill="#1296db"></path><path d="M400 688m48 0l288 0q48 0 48 48l0 0q0 48-48 48l-288 0q-48 0-48-48l0 0q0-48 48-48Z" p-id="15627" fill="#1296db"></path></svg>