<?xml version="1.0" standalone="no"?><!DOCTYPE svg PUBLIC "-//W3C//DTD SVG 1.1//EN" "http://www.w3.org/Graphics/SVG/1.1/DTD/svg11.dtd"><svg t="1661363413768" class="icon" viewBox="0 0 1024 1024" version="1.1" xmlns="http://www.w3.org/2000/svg" p-id="23982" xmlns:xlink="http://www.w3.org/1999/xlink" width="200" height="200"><defs><style type="text/css"></style></defs><path d="M1024 789.333333c0 129.6-105.045333 234.666667-234.666667 234.666667-129.6 0-234.666667-105.045333-234.666666-234.666667v-170.645333A64 64 0 0 1 618.688 554.666667H789.333333c129.6 0 234.666667 105.045333 234.666667 234.666666z m-85.333333 0c0-82.304-66.858667-149.333333-149.333334-149.333333h-149.333333v149.333333c0 82.304 66.858667 149.333333 149.333333 149.333334 82.304 0 149.333333-66.858667 149.333334-149.333334zM0 789.333333c0-129.621333 105.066667-234.666667 234.666667-234.666666h170.645333A64 64 0 0 1 469.333333 618.688V789.333333c0 129.621333-105.066667 234.666667-234.666666 234.666667-129.621333 0-234.666667-105.066667-234.666667-234.666667z m85.333333 0c0 82.474667 67.029333 149.333333 149.333334 149.333334 82.474667 0 149.333333-67.029333 149.333333-149.333334v-149.333333h-149.333333c-82.474667 0-149.333333 67.029333-149.333334 149.333333z m938.666667-554.666666c0 129.621333-105.066667 234.666667-234.666667 234.666666h-170.645333A64 64 0 0 1 554.666667 405.312V234.666667c0-129.621333 105.066667-234.666667 234.666666-234.666667 129.621333 0 234.666667 105.066667 234.666667 234.666667z m-85.333333 0c0-82.474667-67.029333-149.333333-149.333334-149.333334-82.474667 0-149.333333 67.029333-149.333333 149.333334v149.333333h149.333333c82.474667 0 149.333333-67.029333 149.333334-149.333333zM0 234.666667C0 105.066667 105.045333 0 234.666667 0c129.6 0 234.666667 105.045333 234.666666 234.666667v170.645333A64 64 0 0 1 405.312 469.333333H234.666667C105.066667 469.333333 0 364.288 0 234.666667z m85.333333 0c0 82.304 66.858667 149.333333 149.333334 149.333333h149.333333v-149.333333c0-82.304-66.858667-149.333333-149.333333-149.333334-82.304 0-149.333333 66.858667-149.333334 149.333334z" p-id="23983" fill="#1296db"></path></svg>