<?xml version="1.0" standalone="no"?><!DOCTYPE svg PUBLIC "-//W3C//DTD SVG 1.1//EN" "http://www.w3.org/Graphics/SVG/1.1/DTD/svg11.dtd"><svg t="1661362426419" class="icon" viewBox="0 0 1024 1024" version="1.1" xmlns="http://www.w3.org/2000/svg" p-id="18900" xmlns:xlink="http://www.w3.org/1999/xlink" width="200" height="200"><defs><style type="text/css"></style></defs><path d="M756.385475 521.749038 455.285812 521.749038c-24.606421 0-44.474934-19.869536-44.474934-44.475957 0-24.599258 19.868513-44.470841 44.474934-44.470841l301.099662 0c24.604374 0 44.472887 19.87056 44.472887 44.470841C800.858362 501.880525 780.799514 521.749038 756.385475 521.749038L756.385475 521.749038 756.385475 521.749038zM756.385475 697.763844 455.285812 697.763844c-24.606421 0-44.474934-19.871583-44.474934-44.474934 0-24.600281 19.868513-44.474934 44.474934-44.474934l301.099662 0c24.604374 0 44.472887 19.874653 44.472887 44.474934C800.858362 677.892261 780.799514 697.763844 756.385475 697.763844L756.385475 697.763844 756.385475 697.763844zM960.777585 843.11221 960.777585 280.640702c0-68.322062-62.265112-61.883419-62.265112-61.883419s-371.690394 0.37453-351.819834 0c-21.196765 0.37453-31.986505-11.171434-31.986505-11.171434s-14.760169-25.544793-41.443901-65.669652c-27.820626-42.200124-60.181661-35.388998-60.181661-35.388998L139.420865 106.527199c-75.891458 0-76.648704 73.052806-76.648704 73.052806l0 659.933237c0 81.377402 61.504796 71.351048 61.504796 71.351048l779.914866 0C970.053855 910.86429 960.777585 843.11221 960.777585 843.11221L960.777585 843.11221 960.777585 843.11221 960.777585 843.11221zM904.952138 809.80257c0 25.171286-20.250206 45.422516-45.423539 45.422516L164.023192 855.225085c-25.173332 0-45.419446-20.25123-45.419446-45.422516L118.603747 338.933339c0-25.174356 20.246113-45.420469 45.419446-45.420469l695.506431 0c25.173332 0 45.423539 20.246113 45.423539 45.420469L904.953162 809.80257 904.952138 809.80257zM242.566036 477.274104c0 26.235524 21.265326 47.509037 47.498804 47.509037 26.234501 0 47.50392-21.273513 47.50392-47.509037 0-26.228361-21.269419-47.498804-47.50392-47.498804C263.830339 429.7753 242.566036 451.039603 242.566036 477.274104L242.566036 477.274104 242.566036 477.274104zM242.566036 653.28891c0 26.235524 21.265326 47.50392 47.498804 47.50392 26.234501 0 47.50392-21.268396 47.50392-47.50392 0-26.237571-21.269419-47.498804-47.50392-47.498804C263.830339 605.790106 242.566036 627.052362 242.566036 653.28891L242.566036 653.28891 242.566036 653.28891zM242.566036 653.28891" p-id="18901" fill="#1296db"></path></svg>