<?xml version="1.0" standalone="no"?><!DOCTYPE svg PUBLIC "-//W3C//DTD SVG 1.1//EN" "http://www.w3.org/Graphics/SVG/1.1/DTD/svg11.dtd"><svg t="1664110026006" class="icon" viewBox="0 0 1024 1024" version="1.1" xmlns="http://www.w3.org/2000/svg" p-id="6963" xmlns:xlink="http://www.w3.org/1999/xlink" width="200" height="200"><path d="M947.2 76.8H76.8c-28.224 0-51.2 22.976-51.2 51.2v153.6c0 28.224 22.976 51.2 51.2 51.2h870.4c28.224 0 51.2-22.976 51.2-51.2V128c0-28.224-22.976-51.2-51.2-51.2zM640 236.8H128v-64h512v64z m230.4 6.4a38.4 38.4 0 1 1 0-76.8 38.4 38.4 0 0 1 0 76.8zM947.2 384H76.8c-28.224 0-51.2 22.976-51.2 51.2v153.6c0 28.224 22.976 51.2 51.2 51.2h870.4c28.224 0 51.2-22.976 51.2-51.2V435.2c0-28.224-22.976-51.2-51.2-51.2zM640 544H128v-64h512v64z m230.4 6.4a38.4 38.4 0 1 1 0.064-76.864A38.4 38.4 0 0 1 870.4 550.4zM947.2 691.2H76.8c-28.224 0-51.2 22.976-51.2 51.2V896c0 28.224 22.976 51.2 51.2 51.2h870.4c28.224 0 51.2-22.976 51.2-51.2v-153.6c0-28.224-22.976-51.2-51.2-51.2zM640 851.2H128v-64h512v64z m230.4 6.4a38.4 38.4 0 1 1 0.064-76.864 38.4 38.4 0 0 1-0.064 76.864z" p-id="6964" fill="#1296db"></path></svg>