<?xml version="1.0" standalone="no"?><!DOCTYPE svg PUBLIC "-//W3C//DTD SVG 1.1//EN" "http://www.w3.org/Graphics/SVG/1.1/DTD/svg11.dtd"><svg t="1661362207963" class="icon" viewBox="0 0 1024 1024" version="1.1" xmlns="http://www.w3.org/2000/svg" p-id="10598" xmlns:xlink="http://www.w3.org/1999/xlink" width="200" height="200"><defs><style type="text/css"></style></defs><path d="M863.91 92.68H159.59c-50.68 0-91.91 41.23-91.91 91.91V387.9c0 50.68 41.23 91.91 91.91 91.91H863.9c50.68 0 91.91-41.23 91.91-91.91V184.59c0.01-50.68-41.22-91.91-91.9-91.91zM887.5 387.9c0 13.01-10.59 23.6-23.6 23.6H159.59c-13.01 0-23.6-10.59-23.6-23.6V184.59c0-13.01 10.59-23.6 23.6-23.6H863.9c13.01 0 23.6 10.59 23.6 23.6V387.9z" p-id="10599" fill="#1296db"></path><path d="M623.48 252.09H400.02c-18.86 0-34.16 15.3-34.16 34.16 0 18.86 15.3 34.16 34.16 34.16h223.46c18.86 0 34.16-15.3 34.16-34.16 0-18.86-15.3-34.16-34.16-34.16zM863.91 548.13H159.59c-50.68 0-91.91 41.23-91.91 91.91v203.31c0 50.68 41.23 91.91 91.91 91.91H863.9c50.68 0 91.91-41.23 91.91-91.91v-203.3c0.01-50.68-41.22-91.92-91.9-91.92z m23.59 295.23c0 13.01-10.59 23.6-23.6 23.6H159.59c-13.01 0-23.6-10.59-23.6-23.6V640.05c0-13.01 10.59-23.6 23.6-23.6H863.9c13.01 0 23.6 10.59 23.6 23.6v203.31z" p-id="10600" fill="#1296db"></path><path d="M623.48 707.54H400.02c-18.86 0-34.16 15.3-34.16 34.16s15.3 34.16 34.16 34.16h223.46c18.86 0 34.16-15.3 34.16-34.16s-15.3-34.16-34.16-34.16z" p-id="10601" fill="#1296db"></path></svg>