<?xml version="1.0" standalone="no"?><?xml-stylesheet type="text/css" href="https://www.processon.com/themes/default/mind/icons/icons.css" ?><!DOCTYPE svg PUBLIC "-//W3C//DTD SVG 1.1//EN" "http://www.w3.org/Graphics/SVG/1.1/DTD/svg11.dtd"><svg id="SvgjsSvg1000" xmlns="http://www.w3.org/2000/svg" version="1.1" xmlns:xlink="http://www.w3.org/1999/xlink" xmlns:svgjs="http://svgjs.com/svgjs" width="1003" height="782.6666870117188"><g id="downloadwatermarkid"><defs><pattern patternUnits="userSpaceOnUse" id="pattern_mark_download" width="300" height="300"><text x="0" y="96" fill="rgb(229,229,229,0.8)" font-size="18" transform="rotate(-45, 150, 150)">物联大师</text></pattern></defs><rect fill="url(#pattern_mark_download)" x="0" y="0" width="1003" height="782.6666870117188" id="rect_mark_download" pointer-events="none"></rect></g><rect fill="url(#pattern_mark)" transform="translate(-12,-98.66666603088379)" width="1050" height="1500" id="rect_mark" pointer-events="none"></rect><defs id="SvgjsDefs1001"><marker id="SvgjsMarker1063" markerWidth="14" markerHeight="10" refX="10" refY="5" viewBox="0 0 14 10" orient="auto" markerUnits="userSpaceOnUse" stroke-dasharray="0,0"><path id="SvgjsPath1064" d="M0 0L14 5L0 10L0 0 " fill="#323232" stroke="#323232" stroke-width="1"></path></marker><marker id="SvgjsMarker1067" markerWidth="14" markerHeight="10" refX="4" refY="5" viewBox="0 0 14 10" orient="auto" markerUnits="userSpaceOnUse" stroke-dasharray="0,0"><path id="SvgjsPath1068" d="M14 0L0 5L14 10L14 0 " fill="#323232" stroke="#323232" stroke-width="1"></path></marker><marker id="SvgjsMarker1069" markerWidth="14" markerHeight="10" refX="10" refY="5" viewBox="0 0 14 10" orient="auto" markerUnits="userSpaceOnUse" stroke-dasharray="0,0"><path id="SvgjsPath1070" d="M0 0L14 5L0 10L0 0 " fill="#323232" stroke="#323232" stroke-width="1"></path></marker><marker id="SvgjsMarker1073" markerWidth="14" markerHeight="10" refX="4" refY="5" viewBox="0 0 14 10" orient="auto" markerUnits="userSpaceOnUse" stroke-dasharray="0,0"><path id="SvgjsPath1074" d="M14 0L0 5L14 10L14 0 " fill="#323232" stroke="#323232" stroke-width="1"></path></marker><marker id="SvgjsMarker1075" markerWidth="14" markerHeight="10" refX="10" refY="5" viewBox="0 0 14 10" orient="auto" markerUnits="userSpaceOnUse" stroke-dasharray="0,0"><path id="SvgjsPath1076" d="M0 0L14 5L0 10L0 0 " fill="#323232" stroke="#323232" stroke-width="1"></path></marker><marker id="SvgjsMarker1079" markerWidth="14" markerHeight="10" refX="4" refY="5" viewBox="0 0 14 10" orient="auto" markerUnits="userSpaceOnUse" stroke-dasharray="0,0"><path id="SvgjsPath1080" d="M14 0L0 5L14 10L14 0 " fill="#323232" stroke="#323232" stroke-width="1"></path></marker><marker id="SvgjsMarker1081" markerWidth="14" markerHeight="10" refX="10" refY="5" viewBox="0 0 14 10" orient="auto" markerUnits="userSpaceOnUse" stroke-dasharray="0,0"><path id="SvgjsPath1082" d="M0 0L14 5L0 10L0 0 " fill="#323232" stroke="#323232" stroke-width="1"></path></marker><marker id="SvgjsMarker1085" markerWidth="14" markerHeight="10" refX="4" refY="5" viewBox="0 0 14 10" orient="auto" markerUnits="userSpaceOnUse" stroke-dasharray="0,0"><path id="SvgjsPath1086" d="M14 0L0 5L14 10L14 0 " fill="#323232" stroke="#323232" stroke-width="1"></path></marker><marker id="SvgjsMarker1087" markerWidth="14" markerHeight="10" refX="10" refY="5" viewBox="0 0 14 10" orient="auto" markerUnits="userSpaceOnUse" stroke-dasharray="0,0"><path id="SvgjsPath1088" d="M0 0L14 5L0 10L0 0 " fill="#323232" stroke="#323232" stroke-width="1"></path></marker><marker id="SvgjsMarker1109" markerWidth="14" markerHeight="10" refX="4" refY="5" viewBox="0 0 14 10" orient="auto" markerUnits="userSpaceOnUse" stroke-dasharray="0,0"><path id="SvgjsPath1110" d="M14 0L0 5L14 10L14 0 " fill="#323232" stroke="#323232" stroke-width="1"></path></marker><marker id="SvgjsMarker1111" markerWidth="14" markerHeight="10" refX="10" refY="5" viewBox="0 0 14 10" orient="auto" markerUnits="userSpaceOnUse" stroke-dasharray="0,0"><path id="SvgjsPath1112" d="M0 0L14 5L0 10L0 0 " fill="#323232" stroke="#323232" stroke-width="1"></path></marker><marker id="SvgjsMarker1115" markerWidth="14" markerHeight="10" refX="10" refY="5" viewBox="0 0 14 10" orient="auto" markerUnits="userSpaceOnUse" stroke-dasharray="0,0"><path id="SvgjsPath1116" d="M0 0L14 5L0 10L0 0 " fill="#323232" stroke="#323232" stroke-width="1"></path></marker><marker id="SvgjsMarker1119" markerWidth="14" markerHeight="10" refX="10" refY="5" viewBox="0 0 14 10" orient="auto" markerUnits="userSpaceOnUse" stroke-dasharray="0,0"><path id="SvgjsPath1120" d="M0 0L14 5L0 10L0 0 " fill="#323232" stroke="#323232" stroke-width="1"></path></marker><marker id="SvgjsMarker1131" markerWidth="14" markerHeight="10" refX="4" refY="5" viewBox="0 0 14 10" orient="auto" markerUnits="userSpaceOnUse" stroke-dasharray="0,0"><path id="SvgjsPath1132" d="M14 0L0 5L14 10L14 0 " fill="#323232" stroke="#323232" stroke-width="1"></path></marker><marker id="SvgjsMarker1133" markerWidth="14" markerHeight="10" refX="10" refY="5" viewBox="0 0 14 10" orient="auto" markerUnits="userSpaceOnUse" stroke-dasharray="0,0"><path id="SvgjsPath1134" d="M0 0L14 5L0 10L0 0 " fill="#323232" stroke="#323232" stroke-width="1"></path></marker><marker id="SvgjsMarker1153" markerWidth="14" markerHeight="10" refX="4" refY="5" viewBox="0 0 14 10" orient="auto" markerUnits="userSpaceOnUse" stroke-dasharray="0,0"><path id="SvgjsPath1154" d="M14 0L0 5L14 10L14 0 " fill="#323232" stroke="#323232" stroke-width="1"></path></marker><marker id="SvgjsMarker1155" markerWidth="14" markerHeight="10" refX="10" refY="5" viewBox="0 0 14 10" orient="auto" markerUnits="userSpaceOnUse" stroke-dasharray="0,0"><path id="SvgjsPath1156" d="M0 0L14 5L0 10L0 0 " fill="#323232" stroke="#323232" stroke-width="1"></path></marker><marker id="SvgjsMarker1159" markerWidth="14" markerHeight="10" refX="10" refY="5" viewBox="0 0 14 10" orient="auto" markerUnits="userSpaceOnUse" stroke-dasharray="0,0"><path id="SvgjsPath1160" d="M0 0L14 5L0 10L0 0 " fill="#323232" stroke="#323232" stroke-width="1"></path></marker><pattern patternUnits="userSpaceOnUse" id="pattern_mark" width="300" height="300"><text x="-50" y="150" fill="rgba(229,229,229,0.8)" font-size="18" transform="rotate(-45, 150, 150)"></text></pattern></defs><g id="SvgjsG1007" transform="translate(812,172.00000190734863)"><path id="SvgjsPath1008" d="M0 0L166 0L166 438.66666412353516L0 438.66666412353516Z " stroke-dasharray="3,4" stroke="rgba(50,50,50,1)" stroke-width="2" fill-opacity="1" fill="#ffffff"></path><g id="SvgjsG1009"><text id="SvgjsText1010" font-family="微软雅黑" text-anchor="middle" font-size="13px" width="146px" fill="#323232" font-weight="400" align="middle" lineheight="125%" font-style="" opacity="1" y="208.70833206176758" transform="rotate(0)"></text></g></g><g id="SvgjsG1011" transform="translate(25,172.00000190734863)"><path id="SvgjsPath1012" d="M0 0L166 0L166 438.66666412353516L0 438.66666412353516Z " stroke-dasharray="3,4" stroke="rgba(50,50,50,1)" stroke-width="2" fill-opacity="1" fill="#ffffff"></path><g id="SvgjsG1013"><text id="SvgjsText1014" font-family="微软雅黑" text-anchor="middle" font-size="13px" width="146px" fill="#323232" font-weight="400" align="middle" lineheight="125%" font-style="" opacity="1" y="208.70833206176758" transform="rotate(0)"></text></g></g><g id="SvgjsG1015" transform="translate(216,622.6666679382324)"><path id="SvgjsPath1016" d="M0 0L550 0L550 135L0 135Z " stroke-dasharray="3,4" stroke="rgba(50,50,50,1)" stroke-width="2" fill-opacity="1" fill="#ffffff"></path><g id="SvgjsG1017"><text id="SvgjsText1018" font-family="微软雅黑" text-anchor="middle" font-size="13px" width="530px" fill="#323232" font-weight="400" align="middle" lineheight="125%" font-style="" opacity="1" y="56.875" transform="rotate(0)"></text></g></g><g id="SvgjsG1019" transform="translate(216,25)"><path id="SvgjsPath1020" d="M0 0L550 0L550 135L0 135Z " stroke-dasharray="3,4" stroke="rgba(50,50,50,1)" stroke-width="2" fill-opacity="1" fill="#ffffff"></path><g id="SvgjsG1021"><text id="SvgjsText1022" font-family="微软雅黑" text-anchor="middle" font-size="13px" width="530px" fill="#323232" font-weight="400" align="middle" lineheight="125%" font-style="" opacity="1" y="56.875" transform="rotate(0)"></text></g></g><g id="SvgjsG1023" transform="translate(260,226.3333339691162)"><path id="SvgjsPath1024" d="M0 4Q0 0 4 0L458 0Q462 0 462 4L462 326Q462 330 458 330L4 330Q0 330 0 326Z " stroke="none" fill-opacity="1" fill="#64b5f6"></path><g id="SvgjsG1025"><text id="SvgjsText1026" font-family="微软雅黑" text-anchor="middle" font-size="13px" width="442px" fill="#323232" font-weight="400" align="middle" lineheight="125%" font-style="" opacity="1" y="154.375" transform="rotate(0)"></text></g></g><g id="SvgjsG1027" transform="translate(315,53.33333396911621)"><path id="SvgjsPath1028" d="M0 35C0 -11.666666666666666 70 -11.666666666666666 70 35C70 81.66666666666667 0 81.66666666666667 0 35Z " stroke="none" fill-opacity="1" fill="#e57373"></path><g id="SvgjsG1029"><text id="SvgjsText1030" font-family="微软雅黑" text-anchor="middle" font-size="16px" width="50px" fill="#ffffff" font-weight="400" align="middle" lineheight="125%" font-style="" opacity="1" y="21" transform="rotate(0)"><tspan id="SvgjsTspan1031" dy="20" x="35"><tspan id="SvgjsTspan1032" style="text-decoration:;">串口</tspan></tspan></text></g></g><g id="SvgjsG1033" transform="translate(456,53.33333396911621)"><path id="SvgjsPath1034" d="M0 35C0 -11.666666666666666 70 -11.666666666666666 70 35C70 81.66666666666667 0 81.66666666666667 0 35Z " stroke="none" fill-opacity="1" fill="#81c784"></path><g id="SvgjsG1035"><text id="SvgjsText1036" font-family="微软雅黑" text-anchor="middle" font-size="16px" width="50px" fill="#ffffff" font-weight="400" align="middle" lineheight="125%" font-style="" opacity="1" y="21" transform="rotate(0)"><tspan id="SvgjsTspan1037" dy="20" x="35"><tspan id="SvgjsTspan1038" style="text-decoration:;">TCP</tspan></tspan></text></g></g><g id="SvgjsG1039" transform="translate(610,53.33333396911621)"><path id="SvgjsPath1040" d="M0 35C0 -11.666666666666666 70 -11.666666666666666 70 35C70 81.66666666666667 0 81.66666666666667 0 35Z " stroke="none" fill-opacity="1" fill="#ffb74d"></path><g id="SvgjsG1041"><text id="SvgjsText1042" font-family="微软雅黑" text-anchor="middle" font-size="16px" width="50px" fill="#ffffff" font-weight="400" align="middle" lineheight="125%" font-style="" opacity="1" y="21" transform="rotate(0)"><tspan id="SvgjsTspan1043" dy="20" x="35"><tspan id="SvgjsTspan1044" style="text-decoration:;">UDP</tspan></tspan></text></g></g><g id="SvgjsG1045" transform="translate(260,651.3333339691162)"><path id="SvgjsPath1046" d="M0 0L180 0L180 76L0 76Z " stroke="none" fill-opacity="1" fill="#96ffab"></path><g id="SvgjsG1047"><text id="SvgjsText1048" font-family="微软雅黑" text-anchor="middle" font-size="16px" width="160px" fill="#323232" font-weight="400" align="middle" lineheight="125%" font-style="" opacity="1" y="14" transform="rotate(0)"><tspan id="SvgjsTspan1049" dy="20" x="90"><tspan id="SvgjsTspan1050" style="text-decoration:;">基础数据库</tspan></tspan><tspan id="SvgjsTspan1051" dy="20" x="90"><tspan id="SvgjsTspan1052" style="text-decoration:;">BoltDB</tspan></tspan></text></g></g><g id="SvgjsG1053" transform="translate(559,651.3333339691162)"><path id="SvgjsPath1054" d="M0 0L163 0L163 76L0 76Z " stroke="none" fill-opacity="1" fill="#ffff96"></path><g id="SvgjsG1055"><text id="SvgjsText1056" font-family="微软雅黑" text-anchor="middle" font-size="16px" width="143px" fill="#323232" font-weight="400" align="middle" lineheight="125%" font-style="" opacity="1" y="14" transform="rotate(0)"><tspan id="SvgjsTspan1057" dy="20" x="81.5"><tspan id="SvgjsTspan1058" style="text-decoration:;">历史数据库</tspan></tspan><tspan id="SvgjsTspan1059" dy="20" x="81.5"><tspan id="SvgjsTspan1060" style="text-decoration:;">tstorage</tspan></tspan></text></g></g><g id="SvgjsG1061"><path id="SvgjsPath1062" d="M640.5 555.3333339691162L640.5 603.3333339691162L640.5 603.3333339691162L640.5 648.7333339691162 " stroke="#323232" stroke-width="2" fill="none" marker-end="url(#SvgjsMarker1063)"></path></g><g id="SvgjsG1065"><path id="SvgjsPath1066" d="M350 556.9333339691162L350 602.8333339691162L350 602.8333339691162L350 648.7333339691162 " stroke="#323232" stroke-width="2" fill="none" marker-start="url(#SvgjsMarker1067)" marker-end="url(#SvgjsMarker1069)"></path></g><g id="SvgjsG1071"><path id="SvgjsPath1072" d="M350 125.9333339691162L350 174.8333339691162L350 174.8333339691162L350 223.7333339691162 " stroke="#323232" stroke-width="2" fill="none" marker-start="url(#SvgjsMarker1073)" marker-end="url(#SvgjsMarker1075)"></path></g><g id="SvgjsG1077"><path id="SvgjsPath1078" d="M491 125.9333339691162L491 174.8333339691162L491 174.8333339691162L491 223.7333339691162 " stroke="#323232" stroke-width="2" fill="none" marker-start="url(#SvgjsMarker1079)" marker-end="url(#SvgjsMarker1081)"></path></g><g id="SvgjsG1083"><path id="SvgjsPath1084" d="M645 125.9333339691162L645 174.8333339691162L645 174.8333339691162L645 223.7333339691162 " stroke="#323232" stroke-width="2" fill="none" marker-start="url(#SvgjsMarker1085)" marker-end="url(#SvgjsMarker1087)"></path></g><g id="SvgjsG1089" transform="translate(54,226.3333339691162)"><path id="SvgjsPath1090" d="M0 0L100 0L100 70L0 70Z " stroke="none" fill-opacity="1" fill="#ba68c8"></path><g id="SvgjsG1091"><text id="SvgjsText1092" font-family="微软雅黑" text-anchor="middle" font-size="13px" width="80px" fill="#ffffff" font-weight="400" align="middle" lineheight="125%" font-style="" opacity="1" y="24.375" transform="rotate(0)"><tspan id="SvgjsTspan1093" dy="16" x="50"><tspan id="SvgjsTspan1094" style="text-decoration:;">MQTT</tspan></tspan></text></g></g><g id="SvgjsG1095" transform="translate(54,486.3333339691162)"><path id="SvgjsPath1096" d="M0 0L100 0L100 70L0 70Z " stroke="none" fill-opacity="1" fill="#ba68c8"></path><g id="SvgjsG1097"><text id="SvgjsText1098" font-family="微软雅黑" text-anchor="middle" font-size="13px" width="80px" fill="#ffffff" font-weight="400" align="middle" lineheight="125%" font-style="" opacity="1" y="24.375" transform="rotate(0)"><tspan id="SvgjsTspan1099" dy="16" x="50"><tspan id="SvgjsTspan1100" style="text-decoration:;">HTTP</tspan></tspan></text></g></g><g id="SvgjsG1101" transform="translate(54,356.3333339691162)"><path id="SvgjsPath1102" d="M0 0L100 0L100 70L0 70Z " stroke="none" fill-opacity="1" fill="#ba68c8"></path><g id="SvgjsG1103"><text id="SvgjsText1104" font-family="微软雅黑" text-anchor="middle" font-size="13px" width="80px" fill="#ffffff" font-weight="400" align="middle" lineheight="125%" font-style="" opacity="1" y="24.375" transform="rotate(0)"><tspan id="SvgjsTspan1105" dy="16" x="50"><tspan id="SvgjsTspan1106" style="text-decoration:;">COAP</tspan></tspan></text></g></g><g id="SvgjsG1107"><path id="SvgjsPath1108" d="M156.6 261.3333339691162L257.4 261.3333339691162 " stroke="#323232" stroke-width="2" fill="none" marker-start="url(#SvgjsMarker1109)" marker-end="url(#SvgjsMarker1111)"></path></g><g id="SvgjsG1113"><path id="SvgjsPath1114" d="M154 391.3333339691162L257.4 391.3333339691162 " stroke="#323232" stroke-width="2" fill="none" marker-end="url(#SvgjsMarker1115)"></path></g><g id="SvgjsG1117"><path id="SvgjsPath1118" d="M154 521.3333339691162L257.4 521.3333339691162 " stroke="#323232" stroke-width="2" fill="none" marker-end="url(#SvgjsMarker1119)"></path></g><g id="SvgjsG1121" transform="translate(845,226.3333339691162)"><path id="SvgjsPath1122" d="M0 0L100 0L100 70L0 70Z " stroke="none" fill-opacity="1" fill="#4caf50"></path><g id="SvgjsG1123"><text id="SvgjsText1124" font-family="微软雅黑" text-anchor="middle" font-size="13px" width="80px" fill="#ffffff" font-weight="400" align="middle" lineheight="125%" font-style="" opacity="1" y="16.375" transform="rotate(0)"><tspan id="SvgjsTspan1125" dy="16" x="50"><tspan id="SvgjsTspan1126" style="text-decoration:;">WebUI</tspan></tspan><tspan id="SvgjsTspan1127" dy="16" x="50"><tspan id="SvgjsTspan1128" style="text-decoration:;">组态</tspan></tspan></text></g></g><g id="SvgjsG1129"><path id="SvgjsPath1130" d="M723.6 260.3333339691162L842.4 260.3333339691162 " stroke="#323232" stroke-width="2" fill="none" marker-start="url(#SvgjsMarker1131)" marker-end="url(#SvgjsMarker1133)"></path></g><g id="SvgjsG1135" transform="translate(845,356.3333339691162)"><path id="SvgjsPath1136" d="M0 0L100 0L100 70L0 70Z " stroke="none" fill-opacity="1" fill="#4caf50"></path><g id="SvgjsG1137"><text id="SvgjsText1138" font-family="微软雅黑" text-anchor="middle" font-size="13px" width="80px" fill="#ffffff" font-weight="400" align="middle" lineheight="125%" font-style="" opacity="1" y="16.375" transform="rotate(0)"><tspan id="SvgjsTspan1139" dy="16" x="50"><tspan id="SvgjsTspan1140" style="text-decoration:;">开放接口</tspan></tspan><tspan id="SvgjsTspan1141" dy="16" x="50"><tspan id="SvgjsTspan1142" style="text-decoration:;">API</tspan></tspan></text></g></g><g id="SvgjsG1143" transform="translate(845,486.3333339691162)"><path id="SvgjsPath1144" d="M0 0L100 0L100 70L0 70Z " stroke="none" fill-opacity="1" fill="#4caf50"></path><g id="SvgjsG1145"><text id="SvgjsText1146" font-family="微软雅黑" text-anchor="middle" font-size="13px" width="80px" fill="#ffffff" font-weight="400" align="middle" lineheight="125%" font-style="" opacity="1" y="16.375" transform="rotate(0)"><tspan id="SvgjsTspan1147" dy="16" x="50"><tspan id="SvgjsTspan1148" style="text-decoration:;">数据服务</tspan></tspan><tspan id="SvgjsTspan1149" dy="16" x="50"><tspan id="SvgjsTspan1150" style="text-decoration:;">OPCUA</tspan></tspan></text></g></g><g id="SvgjsG1151"><path id="SvgjsPath1152" d="M724.6 391.3333339691162L842.4 391.3333339691162 " stroke="#323232" stroke-width="2" fill="none" marker-start="url(#SvgjsMarker1153)" marker-end="url(#SvgjsMarker1155)"></path></g><g id="SvgjsG1157"><path id="SvgjsPath1158" d="M722 521.3333339691162L842.4 521.3333339691162 " stroke="#323232" stroke-width="2" fill="none" marker-end="url(#SvgjsMarker1159)"></path></g><g id="SvgjsG1161" transform="translate(407,269.3333339691162)"><path id="SvgjsPath1162" d="M0 0L73 0L73 36L0 36Z " stroke="none" fill-opacity="1" fill="#ffffff"></path><g id="SvgjsG1163"><text id="SvgjsText1164" font-family="微软雅黑" text-anchor="middle" font-size="13px" width="53px" fill="#323232" font-weight="400" align="middle" lineheight="125%" font-style="" opacity="1" y="7.375" transform="rotate(0)"><tspan id="SvgjsTspan1165" dy="16" x="36.5"><tspan id="SvgjsTspan1166" style="text-decoration:;">硬件协议</tspan></tspan></text></g></g><g id="SvgjsG1167" transform="translate(499,269.3333339691162)"><path id="SvgjsPath1168" d="M0 0L73 0L73 36L0 36Z " stroke="none" fill-opacity="1" fill="#ffffff"></path><g id="SvgjsG1169"><text id="SvgjsText1170" font-family="微软雅黑" text-anchor="middle" font-size="13px" width="53px" fill="#323232" font-weight="400" align="middle" lineheight="125%" font-style="" opacity="1" y="7.375" transform="rotate(0)"><tspan id="SvgjsTspan1171" dy="16" x="36.5"><tspan id="SvgjsTspan1172" style="text-decoration:;">数据解析</tspan></tspan></text></g></g><g id="SvgjsG1173" transform="translate(591,269.3333339691162)"><path id="SvgjsPath1174" d="M0 0L73 0L73 36L0 36Z " stroke="none" fill-opacity="1" fill="#ffffff"></path><g id="SvgjsG1175"><text id="SvgjsText1176" font-family="微软雅黑" text-anchor="middle" font-size="13px" width="53px" fill="#323232" font-weight="400" align="middle" lineheight="125%" font-style="" opacity="1" y="7.375" transform="rotate(0)"><tspan id="SvgjsTspan1177" dy="16" x="36.5"><tspan id="SvgjsTspan1178" style="text-decoration:;">公式计算</tspan></tspan></text></g></g><g id="SvgjsG1179" transform="translate(407,324.3333339691162)"><path id="SvgjsPath1180" d="M0 0L73 0L73 36L0 36Z " stroke="none" fill-opacity="1" fill="#ffffff"></path><g id="SvgjsG1181"><text id="SvgjsText1182" font-family="微软雅黑" text-anchor="middle" font-size="13px" width="53px" fill="#323232" font-weight="400" align="middle" lineheight="125%" font-style="" opacity="1" y="7.375" transform="rotate(0)"><tspan id="SvgjsTspan1183" dy="16" x="36.5"><tspan id="SvgjsTspan1184" style="text-decoration:;">定时任务</tspan></tspan></text></g></g><g id="SvgjsG1185" transform="translate(499,324.3333339691162)"><path id="SvgjsPath1186" d="M0 0L73 0L73 36L0 36Z " stroke="none" fill-opacity="1" fill="#ffffff"></path><g id="SvgjsG1187"><text id="SvgjsText1188" font-family="微软雅黑" text-anchor="middle" font-size="13px" width="53px" fill="#323232" font-weight="400" align="middle" lineheight="125%" font-style="" opacity="1" y="7.375" transform="rotate(0)"><tspan id="SvgjsTspan1189" dy="16" x="36.5"><tspan id="SvgjsTspan1190" style="text-decoration:;">异常报警</tspan></tspan></text></g></g><g id="SvgjsG1191" transform="translate(407,428.3333339691162)"><path id="SvgjsPath1192" d="M0 0L73 0L73 36L0 36Z " stroke="none" fill-opacity="1" fill="#ffffff"></path><g id="SvgjsG1193"><text id="SvgjsText1194" font-family="微软雅黑" text-anchor="middle" font-size="13px" width="53px" fill="#323232" font-weight="400" align="middle" lineheight="125%" font-style="" opacity="1" y="7.375" transform="rotate(0)"><tspan id="SvgjsTspan1195" dy="16" x="36.5"><tspan id="SvgjsTspan1196" style="text-decoration:;">数据聚合</tspan></tspan></text></g></g><g id="SvgjsG1197" transform="translate(591,324.3333339691162)"><path id="SvgjsPath1198" d="M0 0L73 0L73 36L0 36Z " stroke="none" fill-opacity="1" fill="#ffffff"></path><g id="SvgjsG1199"><text id="SvgjsText1200" font-family="微软雅黑" text-anchor="middle" font-size="13px" width="53px" fill="#323232" font-weight="400" align="middle" lineheight="125%" font-style="" opacity="1" y="7.375" transform="rotate(0)"><tspan id="SvgjsTspan1201" dy="16" x="36.5"><tspan id="SvgjsTspan1202" style="text-decoration:;">自动策略</tspan></tspan></text></g></g><g id="SvgjsG1203" transform="translate(315,324.3333339691162)"><path id="SvgjsPath1204" d="M0 0L73 0L73 36L0 36Z " stroke="none" fill-opacity="1" fill="#ffffff"></path><g id="SvgjsG1205"><text id="SvgjsText1206" font-family="微软雅黑" text-anchor="middle" font-size="13px" width="53px" fill="#323232" font-weight="400" align="middle" lineheight="125%" font-style="" opacity="1" y="7.375" transform="rotate(0)"><tspan id="SvgjsTspan1207" dy="16" x="36.5"><tspan id="SvgjsTspan1208" style="text-decoration:;">数据采集</tspan></tspan></text></g></g><g id="SvgjsG1209" transform="translate(593,428.3333339691162)"><path id="SvgjsPath1210" d="M0 0L73 0L73 36L0 36Z " stroke="none" fill-opacity="1" fill="#ffffff"></path><g id="SvgjsG1211"><text id="SvgjsText1212" font-family="微软雅黑" text-anchor="middle" font-size="13px" width="53px" fill="#323232" font-weight="400" align="middle" lineheight="125%" font-style="" opacity="1" y="7.375" transform="rotate(0)"><tspan id="SvgjsTspan1213" dy="16" x="36.5"><tspan id="SvgjsTspan1214" style="text-decoration:;">定时任务</tspan></tspan></text></g></g><g id="SvgjsG1215" transform="translate(315,482.3333339691162)"><path id="SvgjsPath1216" d="M0 0L73 0L73 36L0 36Z " stroke="none" fill-opacity="1" fill="#ffffff"></path><g id="SvgjsG1217"><text id="SvgjsText1218" font-family="微软雅黑" text-anchor="middle" font-size="13px" width="53px" fill="#323232" font-weight="400" align="middle" lineheight="125%" font-style="" opacity="1" y="7.375" transform="rotate(0)"><tspan id="SvgjsTspan1219" dy="16" x="36.5"><tspan id="SvgjsTspan1220" style="text-decoration:;">异常报警</tspan></tspan></text></g></g><g id="SvgjsG1221" transform="translate(407,482.3333339691162)"><path id="SvgjsPath1222" d="M0 0L73 0L73 36L0 36Z " stroke="none" fill-opacity="1" fill="#ffffff"></path><g id="SvgjsG1223"><text id="SvgjsText1224" font-family="微软雅黑" text-anchor="middle" font-size="13px" width="53px" fill="#323232" font-weight="400" align="middle" lineheight="125%" font-style="" opacity="1" y="7.375" transform="rotate(0)"><tspan id="SvgjsTspan1225" dy="16" x="36.5"><tspan id="SvgjsTspan1226" style="text-decoration:;">自动策略</tspan></tspan></text></g></g><g id="SvgjsG1227" transform="translate(500,428.3333339691162)"><path id="SvgjsPath1228" d="M0 0L73 0L73 36L0 36Z " stroke="none" fill-opacity="1" fill="#ffffff"></path><g id="SvgjsG1229"><text id="SvgjsText1230" font-family="微软雅黑" text-anchor="middle" font-size="13px" width="53px" fill="#323232" font-weight="400" align="middle" lineheight="125%" font-style="" opacity="1" y="7.375" transform="rotate(0)"><tspan id="SvgjsTspan1231" dy="16" x="36.5"><tspan id="SvgjsTspan1232" style="text-decoration:;">公式计算</tspan></tspan></text></g></g><g id="SvgjsG1233"><path id="SvgjsPath1234" d="M299 392.3333339691162L487.5 392.3333339691162L487.5 392.3333339691162L676 392.3333339691162 " stroke-dasharray="8,5" stroke="#323232" stroke-width="1" fill="none"></path></g><g id="SvgjsG1235" transform="translate(276,252.3333339691162)"><path id="SvgjsPath1236" d="M0 0L120 0L120 40L0 40Z " stroke="none" fill="none"></path><g id="SvgjsG1237"><text id="SvgjsText1238" font-family="微软雅黑" text-anchor="middle" font-size="32px" width="120px" fill="#ffffff" font-weight="400" align="middle" lineheight="125%" font-style="" opacity="1" y="-8" transform="rotate(0)"><tspan id="SvgjsTspan1239" dy="40" x="60"><tspan id="SvgjsTspan1240" style="text-decoration:;">设 备</tspan></tspan></text></g></g><g id="SvgjsG1241" transform="translate(276,412.3333339691162)"><path id="SvgjsPath1242" d="M0 0L120 0L120 40L0 40Z " stroke="none" fill="none"></path><g id="SvgjsG1243"><text id="SvgjsText1244" font-family="微软雅黑" text-anchor="middle" font-size="32px" width="120px" fill="#ffffff" font-weight="400" align="middle" lineheight="125%" font-style="" opacity="1" y="-8" transform="rotate(0)"><tspan id="SvgjsTspan1245" dy="40" x="60"><tspan id="SvgjsTspan1246" style="text-decoration:;">项 目</tspan></tspan></text></g></g></svg>